<?xml version="1.0" standalone="no"?>
<!DOCTYPE svg PUBLIC "-//W3C//DTD SVG 20010904//EN"
 "http://www.w3.org/TR/2001/REC-SVG-20010904/DTD/svg10.dtd">
<svg version="1.0" xmlns="http://www.w3.org/2000/svg"
 width="994.000000pt" height="545.000000pt" viewBox="0 0 994.000000 545.000000"
 preserveAspectRatio="xMidYMid meet">

<g transform="translate(0.000000,545.000000) scale(0.100000,-0.100000)"
fill="#000000" stroke="none">
<path d="M0 4503 l0 -948 87 95 c109 120 425 431 483 477 13 10 16 8 15 -12 0
-27 -63 -98 -78 -88 -6 3 -7 2 -4 -4 3 -5 -31 -46 -77 -91 -58 -58 -89 -82
-107 -82 -24 0 -121 -91 -262 -248 l-57 -63 0 -913 0 -913 26 -12 c14 -6 30
-8 36 -5 12 8 51 12 178 18 47 3 141 12 210 21 69 9 137 16 153 16 15 -1 27 4
27 11 0 6 3 9 6 5 3 -3 17 -1 31 4 14 5 42 12 62 15 20 3 41 10 48 16 6 5 69
11 140 14 70 3 148 9 173 14 25 6 63 12 85 14 85 10 127 16 137 22 6 4 42 7
80 7 42 0 65 3 56 8 -9 6 -2 9 20 9 19 0 31 4 27 10 -3 5 24 11 67 13 66 3 63
3 -26 5 -55 1 -97 5 -93 8 5 5 40 8 214 15 72 3 110 19 46 19 l-43 0 0 80 0
80 81 0 c99 0 109 -8 109 -84 0 -50 2 -54 20 -50 43 9 56 13 73 19 10 4 17 3
17 -4 0 -6 5 -11 10 -11 6 0 10 28 10 65 0 58 2 65 20 65 16 0 20 -7 20 -30 0
-23 4 -30 20 -30 16 0 20 7 20 30 0 20 5 30 15 30 9 0 15 -9 15 -22 0 -43 11
-67 31 -65 15 1 19 9 19 44 0 32 4 43 15 43 11 0 15 -11 15 -40 0 -29 4 -40
15 -40 11 0 15 11 15 40 l0 40 95 0 95 0 0 -41 c0 -24 4 -38 10 -34 6 3 10 22
10 41 l0 34 95 0 c87 0 95 -2 95 -19 0 -31 18 -34 22 -4 4 39 38 45 38 6 0
-20 3 -24 9 -14 7 11 9 11 14 0 4 -11 6 -11 6 1 2 21 64 50 109 51 30 0 33 2
17 9 l-20 9 20 2 c11 1 35 3 54 5 18 1 45 6 60 10 14 4 28 8 31 8 3 1 10 4 15
7 6 4 28 12 50 19 22 7 69 26 105 42 36 17 75 34 88 39 12 5 22 13 22 20 0 6
12 9 28 8 26 -3 116 33 127 51 3 4 14 6 25 3 14 -4 20 0 20 11 0 19 5 20 30 6
13 -7 21 -7 25 0 3 5 17 10 29 10 13 0 39 13 57 30 19 16 42 30 52 30 10 0 17
8 17 19 0 11 5 23 10 26 6 4 10 14 9 23 -5 37 15 110 47 172 18 36 37 80 40
97 7 36 18 48 67 72 21 11 31 22 29 34 -2 14 2 18 20 15 15 -2 23 2 23 12 0
12 -12 14 -62 12 -35 -2 -63 1 -63 6 0 12 95 19 253 21 132 2 187 8 187 22 0
5 8 10 18 10 9 1 -1 5 -23 9 l-40 7 43 2 c36 1 42 -2 42 -19 0 -17 3 -19 19
-10 26 14 30 13 30 -7 0 -10 2 -133 5 -274 l5 -257 33 -63 c43 -84 44 -87 22
-68 -32 27 -44 32 -38 15 3 -8 1 -23 -5 -33 -8 -15 -11 -10 -12 27 -1 38 -2
41 -9 20 -11 -35 -12 -100 -1 -100 5 0 14 -12 19 -27 6 -16 21 -44 34 -63 l23
-35 -30 23 c-16 13 -31 20 -32 15 -1 -4 -7 -27 -13 -51 -6 -23 -15 -40 -20
-37 -18 11 -10 -37 11 -66 15 -22 17 -29 6 -29 -7 0 -18 -10 -24 -22 -15 -34
-43 -131 -38 -136 2 -2 14 3 27 12 12 9 29 16 38 16 8 0 -8 -15 -36 -34 -28
-19 -51 -40 -51 -48 0 -7 -3 -23 -7 -35 -5 -16 0 -28 19 -46 l26 -24 -30 5
c-29 4 -29 3 -22 -29 4 -19 18 -56 30 -84 l22 -50 -31 30 c-16 16 -30 24 -30
17 0 -6 4 -14 10 -17 5 -3 15 -16 21 -28 9 -18 9 -20 -2 -10 -24 23 -49 16
-50 -14 -3 -72 4 -101 32 -142 l30 -43 -38 22 -38 22 35 -31 34 -31 -36 0
c-30 0 -37 -4 -42 -26 -8 -31 0 -59 26 -97 11 -15 16 -27 11 -27 -4 -1 6 -12
22 -26 l30 -26 -43 22 -43 21 -14 -33 -14 -33 -1 38 c0 78 -66 91 -109 22 -10
-16 -11 -17 -7 -2 3 11 2 15 -4 12 -6 -3 -10 -17 -10 -31 0 -13 -5 -24 -11
-24 -5 0 -7 6 -3 13 15 25 -10 -4 -40 -48 -160 -232 -366 -541 -393 -588 -19
-35 -33 -73 -33 -93 0 -19 -3 -34 -7 -34 -5 0 -9 -15 -11 -33 -1 -17 -3 -39
-5 -47 -1 -8 15 -66 36 -127 l39 -113 366 0 c324 0 364 2 346 15 -10 8 -14 15
-7 15 6 0 18 -7 27 -15 8 -8 22 -15 30 -15 13 0 15 11 11 63 -3 43 -2 54 4 37
5 -14 9 -42 10 -62 l1 -38 146 0 c144 0 145 0 139 21 -5 15 -4 19 4 15 6 -4
11 -14 11 -22 0 -12 142 -14 1043 -14 l1044 0 39 112 c38 112 47 190 25 237
-29 63 -72 138 -120 211 -30 47 -60 92 -66 101 -16 26 -45 68 -105 154 -31 44
-62 92 -70 108 -7 15 -17 27 -22 27 -4 0 -8 6 -8 14 0 7 -19 33 -42 57 -24 24
-34 37 -24 29 14 -10 17 -11 12 -2 -4 7 -18 17 -29 21 -12 5 -22 17 -22 27 0
10 -5 19 -12 19 -6 0 -21 10 -33 23 -11 12 -23 22 -26 22 -2 0 -27 -12 -54
-26 l-50 -26 0 -65 c0 -51 4 -69 18 -79 10 -8 12 -13 5 -14 -16 0 -17 -41 -1
-91 9 -32 17 -41 45 -48 19 -6 41 -7 48 -5 20 8 40 -63 26 -96 -9 -23 -10 -24
-10 -3 -2 40 -12 53 -45 53 -38 0 -89 43 -95 80 -3 14 -6 135 -8 270 -1 135
-3 255 -4 268 0 12 0 73 1 135 0 61 -4 135 -10 162 -6 28 -15 78 -20 113 -6
34 -16 73 -24 85 -8 12 -22 62 -31 111 -15 81 -15 92 -1 128 33 80 9 219 -58
353 -26 49 -46 98 -46 110 1 11 13 -6 29 -41 16 -34 34 -65 41 -69 10 -6 12
-3 6 10 -15 41 -26 155 -16 181 10 25 9 26 -15 20 -30 -8 -31 -3 -5 32 17 24
20 47 22 197 4 221 -3 254 -65 322 -30 33 -125 84 -179 97 -27 6 -28 5 -28
-31 l-1 -38 -14 40 c-9 25 -34 58 -67 88 l-53 48 -6 -68 c-3 -37 -6 -52 -7
-33 -3 35 -13 85 -27 129 -6 21 -5 23 14 18 18 -4 20 -3 11 8 -7 8 -9 19 -6
24 4 5 2 12 -4 16 -5 3 -10 12 -10 18 0 7 4 6 11 -3 9 -12 10 -12 5 3 -3 10
-6 26 -6 35 0 15 -2 15 -10 2 -13 -20 -14 3 -1 28 5 9 17 51 26 92 31 130 40
133 40 12 0 -59 4 -116 9 -127 l9 -20 -17 20 c-17 20 -17 20 -10 -5 8 -32 46
-110 56 -116 8 -5 -1 25 -12 41 -4 6 -4 73 0 150 4 77 8 115 8 85 5 -147 50
-300 107 -363 25 -28 54 -45 100 -62 l65 -22 -6 30 c-3 17 -10 38 -17 46 -9
12 -9 13 1 7 15 -9 15 -11 -3 44 l-15 45 3 -58 c2 -60 -8 -77 -19 -29 -3 15
-23 76 -43 136 -41 118 -59 120 -40 4 14 -87 4 -83 -16 7 -12 53 -16 106 -13
179 3 84 1 100 -9 87 -7 -9 -13 -22 -13 -30 0 -8 -2 -12 -6 -9 -3 3 4 43 16
88 12 45 20 88 18 96 -2 7 -22 -19 -45 -59 -57 -95 -55 -62 1 39 29 50 48 101
55 139 22 132 11 450 -19 505 -14 26 -13 30 8 23 13 -5 12 0 -7 20 -34 37 -22
57 13 21 35 -36 88 -148 92 -193 3 -41 -9 -30 -26 24 -7 22 -15 35 -17 29 -2
-7 12 -46 32 -89 19 -42 32 -82 29 -87 -4 -7 -2 -8 4 -4 6 4 16 -4 23 -16 11
-21 11 -22 -4 -9 -14 11 -17 11 -18 0 0 -8 -11 9 -24 36 -13 28 -24 47 -24 43
-1 -4 15 -62 35 -130 38 -129 48 -244 25 -287 -9 -16 -2 -39 39 -126 27 -58
50 -107 50 -110 0 -2 5 -16 11 -32 14 -34 12 -87 -6 -129 -9 -22 -10 -36 -2
-50 9 -17 9 -18 -6 -5 -15 12 -15 9 1 -30 11 -24 36 -89 58 -144 45 -116 106
-213 197 -307 l37 -39 128 -8 c107 -7 115 -8 50 -10 -43 0 -78 -5 -78 -10 0
-8 55 -18 110 -21 47 -2 106 -13 115 -22 7 -6 5 -9 -5 -8 -8 1 -25 -1 -38 -5
l-23 -8 31 -27 c16 -15 30 -30 30 -35 0 -4 11 -23 25 -40 13 -18 21 -35 18
-39 -4 -3 -1 -6 5 -6 6 0 13 -13 17 -30 4 -16 11 -32 16 -35 5 -4 9 -18 9 -32
0 -14 11 -36 24 -48 25 -23 96 -55 123 -55 9 0 30 -10 47 -23 17 -12 48 -31
69 -42 20 -11 37 -23 37 -28 0 -4 5 -5 10 -2 6 4 17 1 25 -5 8 -7 15 -9 15 -5
0 4 10 1 23 -7 12 -8 49 -23 82 -32 33 -10 85 -33 115 -52 30 -18 75 -37 100
-42 72 -16 235 -33 252 -27 9 4 19 2 23 -4 9 -15 42 -14 48 2 3 9 7 9 20 -1 8
-7 21 -12 29 -12 20 3 58 -11 58 -21 0 -5 8 -9 18 -9 9 0 46 -15 82 -33 36
-18 92 -39 125 -46 33 -7 72 -17 86 -23 15 -5 51 -13 80 -18 81 -12 185 -45
204 -63 9 -10 32 -17 51 -17 33 0 108 -15 149 -30 67 -24 100 -30 174 -30 45
0 91 -4 101 -10 28 -15 151 -16 315 -1 184 16 594 8 634 -14 25 -12 23 -13
-34 -19 -33 -4 -88 -13 -122 -21 -34 -8 -81 -15 -104 -15 -59 0 -37 -23 38
-39 32 -7 90 -21 130 -32 39 -10 98 -19 132 -19 33 0 62 -4 66 -10 3 -5 12 -7
20 -3 11 4 15 23 15 73 0 63 -2 69 -22 73 l-23 4 23 8 22 7 0 914 c0 637 -3
914 -11 914 -5 0 -7 5 -3 12 4 6 3 8 -3 5 -12 -8 -136 117 -126 127 4 4 0 4
-9 1 -11 -4 -18 0 -23 15 -4 12 -9 19 -12 16 -12 -11 -33 17 -33 42 0 15 -13
41 -33 61 -17 20 5 2 50 -39 52 -48 80 -81 78 -92 -2 -11 9 -26 28 -39 l32
-21 -30 26 c-38 33 -20 34 20 2 27 -21 28 -25 15 -42 -14 -17 -14 -18 2 -6 20
16 42 7 34 -14 -3 -7 0 -16 6 -20 7 -4 8 -3 4 4 -4 7 -2 12 3 12 8 0 11 248
11 815 l0 815 -4970 0 -4970 0 0 -947z m7897 771 c-3 -3 -12 -4 -19 -1 -8 3
-5 6 6 6 11 1 17 -2 13 -5z m175 -30 c82 -41 90 -49 85 -81 -2 -13 0 -23 6
-23 6 0 8 -2 5 -5 -3 -3 -24 5 -48 19 -24 14 -37 26 -31 30 6 4 18 0 27 -8 8
-9 21 -16 27 -16 7 0 6 4 -3 10 -8 5 -11 10 -7 10 5 0 1 7 -7 15 -14 14 -18
14 -40 0 -22 -14 -28 -15 -45 -3 -14 10 -17 18 -10 28 8 15 10 13 13 -12 0 -6
7 -13 14 -16 7 -2 12 0 11 5 -3 19 2 27 10 14 6 -9 11 -10 15 -3 4 7 -10 16
-34 23 -22 7 -38 15 -35 18 3 3 -5 11 -17 18 -49 27 -5 11 64 -23z m-2774
-100 c26 -9 82 -35 124 -57 l77 -41 48 13 c129 38 174 23 192 -59 14 -64 14
-103 1 -95 -5 3 -10 20 -10 36 0 16 -6 45 -14 63 -11 27 -21 35 -51 40 -20 4
-43 10 -51 13 -10 4 -12 0 -8 -12 5 -13 2 -16 -17 -15 -13 1 -35 2 -49 1 -24
-2 -24 -3 15 -38 22 -20 31 -33 20 -28 -11 4 -29 10 -40 13 -11 3 -38 17 -60
32 -22 14 -64 39 -94 54 -46 23 -61 27 -102 21 -46 -6 -79 -25 -44 -25 21 0
123 -51 182 -91 224 -152 323 -332 323 -588 0 -93 -8 -104 -15 -20 -13 170
-73 343 -143 417 -20 21 -54 57 -74 80 -20 22 -39 38 -42 34 -4 -3 -21 8 -39
24 -17 16 -42 35 -54 41 -19 11 -21 10 -17 -2 4 -8 12 -15 19 -15 7 0 18 -7
25 -15 20 -24 -9 -19 -50 9 -19 12 -68 40 -108 61 -55 28 -76 35 -85 26 -6 -6
-31 -11 -56 -11 -26 0 -53 -5 -61 -10 -12 -8 -10 -10 11 -10 47 0 219 -64 206
-76 -2 -3 -38 7 -80 21 -96 32 -127 32 -64 -1 71 -37 57 -37 -30 1 -43 18 -95
35 -115 38 -33 5 -40 2 -57 -22 -11 -16 -27 -55 -35 -87 l-15 -59 5 70 5 70
-25 -30 c-13 -16 -46 -70 -72 -118 -41 -76 -50 -86 -57 -69 -9 19 -11 19 -37
-11 -34 -39 -73 -124 -90 -197 -25 -101 -11 -311 26 -404 5 -13 4 -17 -4 -12
-16 10 -49 125 -62 216 -9 68 -8 85 15 180 15 58 28 116 29 130 2 14 14 44 26
68 17 32 20 46 11 55 -6 6 -11 22 -10 37 1 23 2 22 10 -7 5 -18 11 -33 13 -33
3 0 26 30 52 68 59 84 96 124 158 169 41 31 51 35 67 25 29 -19 45 -15 80 20
22 23 51 37 98 49 52 14 59 17 33 18 -18 1 -31 5 -28 9 8 13 -105 1 -139 -14
-16 -8 -23 -12 -14 -10 43 12 109 17 109 10 -1 -12 -129 -69 -136 -61 -4 3
-22 0 -41 -8 -51 -21 -60 -18 -33 10 l24 25 -34 -16 c-18 -10 -54 -18 -79 -19
-25 -1 -59 -6 -76 -9 l-30 -8 25 21 c30 25 24 26 -23 6 -43 -18 -50 -19 -41
-4 4 7 1 10 -7 7 -8 -2 -24 -24 -36 -48 -20 -38 -23 -41 -23 -19 0 40 20 88
42 100 20 11 94 4 113 -11 6 -4 29 -10 51 -14 31 -4 45 -2 54 10 7 8 19 13 27
10 8 -3 12 -2 8 3 -6 11 32 39 104 76 47 23 62 26 110 21 31 -3 62 -2 69 2 16
11 104 -2 170 -24z m2932 16 c13 -8 13 -10 -2 -10 -9 0 -20 5 -23 10 -8 13 5
13 25 0z m82 -55 c0 -5 -5 -10 -11 -11 -8 -2 -7 -1 0 3 8 4 7 8 -2 15 -11 8
-11 9 -1 6 8 -2 14 -8 14 -13z m-2674 -137 c5 -7 13 -24 17 -38 l7 -25 -18 25
c-10 14 -25 30 -34 37 -13 11 -13 12 1 13 9 0 21 -6 27 -12z m-960 -26 c2 -7
-2 -10 -10 -7 -16 6 -68 -40 -68 -61 0 -8 -4 -13 -10 -9 -17 11 -43 -59 -48
-131 -3 -56 -1 -77 13 -97 9 -15 13 -27 7 -27 -5 0 -12 9 -15 20 -12 45 -24
15 -26 -62 -8 -269 -8 -370 -1 -348 4 14 9 48 11 75 1 28 5 -11 9 -85 4 -74
10 -144 15 -154 6 -14 5 -17 -3 -12 -7 4 -13 17 -13 29 -1 17 -3 15 -9 -8 -5
-18 -8 -23 -9 -11 0 11 -4 17 -7 14 -9 -10 16 -198 38 -280 11 -43 17 -85 14
-93 -3 -9 -2 -14 3 -11 4 3 7 -41 6 -97 -1 -104 -22 -203 -45 -217 -9 -6 -6
-10 9 -15 30 -9 18 -22 -52 -56 -101 -49 -129 -86 -147 -195 -13 -76 -13 -292
0 -368 9 -58 5 -110 -9 -102 -9 6 -17 234 -14 394 3 158 14 196 67 248 30 28
46 54 54 87 18 68 15 74 -18 42 -16 -16 -30 -34 -30 -39 0 -6 -15 -11 -34 -12
l-34 0 24 19 c13 10 34 41 45 68 12 27 24 48 26 45 3 -2 -1 -14 -7 -26 -6 -12
-9 -24 -7 -27 3 -3 15 14 27 37 12 23 19 44 17 46 -2 3 -27 -16 -56 -42 -56
-50 -65 -50 -26 0 35 46 75 141 81 195 5 36 3 43 -6 31 -10 -13 -11 -13 -6 2
2 9 -5 43 -17 75 -29 78 -33 318 -6 403 40 129 46 180 30 238 -12 45 -13 67
-3 135 13 86 39 138 34 67 -2 -24 -15 -96 -19 -103 -6 -10 7 -87 15 -87 9 0
44 199 49 275 4 57 3 59 -11 35 -8 -14 -21 -36 -28 -50 -7 -14 -22 -38 -35
-53 -24 -29 -63 -143 -63 -182 0 -12 7 -41 15 -64 19 -54 9 -53 -15 2 -21 46
-26 135 -10 202 12 52 6 55 -19 8 -11 -21 -20 -32 -21 -25 0 16 37 91 58 115
20 22 5 22 -22 0 -15 -13 -13 -9 4 11 34 39 109 86 137 86 13 0 23 6 23 14 0
12 -7 12 -50 1 -62 -16 -137 -69 -161 -113 -26 -51 -31 -50 -15 1 25 83 89
146 181 178 l40 14 -43 3 c-24 2 -56 -3 -72 -12 -39 -19 -39 -5 0 18 41 23
134 33 155 16 14 -11 21 -9 48 19 32 32 57 37 65 13z m1033 -45 c7 -15 29 -30
62 -42 78 -27 160 -70 182 -95 19 -22 17 -22 -26 3 -57 34 -166 70 -181 61 -6
-4 -8 -3 -4 4 3 6 2 13 -4 17 -5 3 -10 1 -10 -4 0 -22 -18 -10 -25 17 -3 15
-14 35 -22 45 -15 15 -15 17 1 17 9 0 21 -10 27 -23z m-271 -23 c0 -2 -9 0
-20 6 -11 6 -20 13 -20 16 0 2 9 0 20 -6 11 -6 20 -13 20 -16z m2895 -66 c5 4
5 1 0 -7 -5 -9 -2 -19 10 -28 11 -7 15 -13 10 -13 -4 0 -2 -8 6 -18 8 -10 -3
0 -23 22 -36 39 -52 70 -25 47 8 -6 18 -7 22 -3z m-2460 -49 c51 -47 95 -129
94 -173 l0 -31 -14 38 c-16 43 -75 128 -75 108 0 -7 5 -22 11 -33 7 -12 15
-47 19 -77 5 -31 11 -67 15 -81 6 -22 4 -20 -15 8 -27 40 -33 37 -20 -9 13
-43 13 -100 0 -119 -8 -13 -10 -12 -11 5 -1 11 0 30 1 43 2 31 -41 121 -79
165 -31 34 -32 38 -17 59 l16 22 40 -43 c48 -50 51 -39 9 39 -17 32 -28 63
-25 68 3 5 -1 15 -9 22 -15 12 -12 30 6 30 5 0 29 -18 54 -41z m-1865 11 c0
-5 -6 -10 -14 -10 -8 0 -18 5 -21 10 -3 6 3 10 14 10 12 0 21 -4 21 -10z
m1517 -12 c-3 -8 -6 -5 -6 6 -1 11 2 17 5 13 3 -3 4 -12 1 -19z m-4227 -38
c11 -7 11 -10 2 -10 -7 0 -11 -4 -7 -10 3 -5 13 -7 23 -4 14 5 14 4 2 -4 -16
-12 -44 3 -35 18 3 5 -1 11 -7 13 -7 3 -8 6 -3 6 6 0 17 -4 25 -9z m7347 4
c-3 -3 -12 -4 -19 -1 -8 3 -5 6 6 6 11 1 17 -2 13 -5z m93 -24 c36 -10 56 -19
45 -19 -21 0 -137 36 -120 38 6 0 39 -8 75 -19z m-6478 -27 c-16 -21 -40 -47
-53 -58 -13 -11 -1 6 26 38 55 64 73 77 27 20z m3328 -6 c0 -5 -4 -5 -10 -2
-5 3 -10 14 -10 23 0 15 2 15 10 2 5 -8 10 -19 10 -23z m3247 7 c-3 -3 -12 -4
-19 -1 -8 3 -5 6 6 6 11 1 17 -2 13 -5z m19 -80 c1 -53 1 -54 -3 -9 -2 27 -10
56 -16 64 -10 11 -9 13 3 9 11 -3 15 -21 16 -64z m-3237 -3 c1 -35 -5 -22 -12
24 -5 28 -4 34 3 20 5 -11 9 -31 9 -44z m-2029 11 c0 -21 -2 -24 -10 -12 -13
20 -13 53 0 45 6 -3 10 -18 10 -33z m3926 19 c-3 -4 -10 -21 -16 -36 -6 -15
-13 -25 -16 -22 -6 6 23 67 32 67 3 0 3 -4 0 -9z m29 -51 c3 -5 1 -10 -4 -10
-6 0 -11 5 -11 10 0 6 2 10 4 10 3 0 8 -4 11 -10z m595 -85 c0 -1 -9 -1 -20 0
-12 1 -32 18 -45 38 -37 54 -30 56 20 7 25 -24 45 -45 45 -45z m-3813 53 c-3
-8 -6 -5 -6 6 -1 11 2 17 5 13 3 -3 4 -12 1 -19z m4103 -95 c0 -7 -95 74 -111
94 -8 10 14 -7 49 -36 34 -30 62 -56 62 -58z m-968 84 c22 19 23 6 2 -22 -11
-15 -18 -17 -32 -9 -9 6 -19 20 -20 30 -4 18 -3 18 14 2 17 -16 19 -16 36 -1z
m534 -28 c19 -22 19 -22 -3 -10 -13 6 -23 16 -23 21 0 15 5 12 26 -11z m-4866
-42 c0 -5 7 -6 16 -3 14 5 15 4 4 -9 -16 -19 -26 -13 -39 27 -10 30 -9 31 4
14 8 -11 15 -24 15 -29z m-606 8 c-16 -24 -72 -65 -90 -65 -10 0 88 89 99 90
4 0 0 -11 -9 -25z m91 -34 c-3 -6 -16 -16 -28 -22 -21 -11 -21 -10 2 15 23 25
40 29 26 7z m-2078 -27 c-3 -3 -12 -4 -19 -1 -8 3 -5 6 6 6 11 1 17 -2 13 -5z
m283 -58 c0 -2 -8 -10 -17 -17 -16 -13 -17 -12 -4 4 13 16 21 21 21 13z m6715
-67 c-9 -14 16 -107 31 -113 8 -3 14 -13 14 -22 0 -19 -66 50 -76 79 -3 10 0
42 7 70 12 50 13 51 20 23 5 -16 6 -33 4 -37z m-4607 11 c-35 -49 -95 -112
-73 -78 9 15 14 31 11 36 -7 12 22 52 38 52 8 0 19 7 26 15 24 28 22 7 -2 -25z
m6562 -61 c55 -51 55 -51 -15 7 -83 69 -111 95 -70 66 17 -12 55 -44 85 -73z
m-1242 36 c-3 -3 -9 2 -12 12 -6 14 -5 15 5 6 7 -7 10 -15 7 -18z m-7508 12
c0 -2 -10 -12 -22 -23 l-23 -19 19 23 c18 21 26 27 26 19z m2316 -39 c4 -13 7
-32 5 -43 -3 -20 -58 -85 -73 -85 -8 0 11 40 23 50 4 3 9 15 13 28 3 12 9 32
12 43 4 16 3 19 -6 14 -9 -5 -11 -4 -6 3 11 18 24 14 32 -10z m1834 2 c-10 -6
-9 -15 3 -40 15 -28 15 -31 1 -26 -9 3 -19 6 -22 6 -4 0 -13 9 -20 21 -12 18
-10 23 9 40 12 10 26 16 31 13 6 -4 5 -9 -2 -14z m-2530 -10 c-11 -21 -22 -25
-33 -13 -7 6 21 32 36 33 4 0 3 -9 -3 -20z m5003 0 c-5 -19 -23 -39 -23 -25 0
9 20 45 24 45 2 0 2 -9 -1 -20z m-2302 -5 c31 4 38 1 49 -23 l14 -27 7 35 c6
32 7 33 14 13 4 -13 11 -23 15 -23 5 0 6 10 2 23 -5 19 -3 20 11 9 8 -7 19
-27 22 -43 4 -19 14 -31 30 -35 16 -4 26 -16 30 -36 6 -26 8 -27 19 -13 11 16
15 16 50 1 21 -9 51 -16 65 -16 15 0 36 -6 46 -14 19 -14 19 -15 2 -34 -17
-19 -17 -21 -1 -30 11 -6 13 -11 5 -16 -20 -13 -12 -27 9 -16 24 13 25 8 4
-33 -43 -83 -160 -191 -259 -239 l-46 -23 -77 40 c-89 45 -210 158 -236 219
-20 47 -20 52 -1 36 21 -17 20 3 -1 35 -9 13 -17 41 -19 61 -4 34 -2 36 22 29
22 -5 25 -3 21 13 -7 24 21 42 63 42 44 0 66 15 74 50 5 23 10 28 19 21 6 -6
28 -8 47 -6z m-4391 -8 c0 -2 -15 -16 -32 -33 l-33 -29 29 33 c28 30 36 37 36
29z m2540 -22 c7 -9 8 -15 2 -15 -5 0 -12 7 -16 15 -3 8 -4 15 -2 15 2 0 9 -7
16 -15z m4988 -24 c3 -8 -1 -12 -9 -9 -7 2 -15 10 -17 17 -3 8 1 12 9 9 7 -2
15 -10 17 -17z m1402 -36 c19 -19 32 -35 29 -35 -3 0 -20 16 -39 35 -19 19
-32 35 -29 35 3 0 20 -16 39 -35z m-9357 18 c-7 -2 -21 -2 -30 0 -10 3 -4 5
12 5 17 0 24 -2 18 -5z m1551 -36 c-22 -24 -41 -42 -43 -40 -5 3 70 83 77 83
3 0 -13 -19 -34 -43z m-1481 26 c-7 -2 -19 -2 -25 0 -7 3 -2 5 12 5 14 0 19
-2 13 -5z m2087 -12 c-5 -11 -15 -23 -21 -27 -6 -3 -3 5 6 20 20 30 30 35 15
7z m-1993 3 c-3 -3 -12 -4 -19 -1 -8 3 -5 6 6 6 11 1 17 -2 13 -5z m8443 -35
c15 -28 5 -23 -15 7 -9 15 -12 23 -6 20 6 -4 16 -16 21 -27z m-610 -4 c14 -19
14 -19 -2 -6 -10 7 -18 18 -18 24 0 6 1 8 3 6 1 -2 9 -13 17 -24z m-757 -70
c29 -43 42 -72 36 -76 -6 -3 -10 -9 -9 -13 1 -3 -1 -20 -5 -36 -6 -27 8 -66
50 -142 17 -31 109 -52 117 -27 2 6 16 -12 32 -41 15 -28 26 -54 23 -57 -3 -3
-15 13 -26 36 -20 37 -23 40 -47 31 -22 -9 -34 -5 -74 21 -52 33 -110 113
-110 149 0 13 5 40 12 61 10 35 9 42 -10 62 -22 23 -52 87 -52 109 0 16 9 6
63 -77z m987 -20 c33 -47 60 -87 60 -90 0 -33 -96 82 -115 139 -7 20 -11 36
-9 36 2 0 30 -38 64 -85z m-5345 45 c-4 -12 -21 -37 -38 -56 -28 -33 -30 -38
-19 -68 7 -18 12 -41 12 -52 0 -50 -143 -174 -184 -158 -20 8 -10 26 12 22 33
-5 78 23 105 66 29 46 48 136 28 136 -16 0 -14 13 7 36 9 10 30 39 45 62 29
45 44 50 32 12z m6733 23 c-10 -2 -26 -2 -35 0 -10 3 -2 5 17 5 19 0 27 -2 18
-5z m-2572 -19 c-3 -9 -6 -18 -6 -20 0 -2 -4 -4 -9 -4 -5 0 -7 9 -4 20 3 11
10 20 15 20 6 0 7 -7 4 -16z m58 -39 c-6 -26 7 -63 35 -94 12 -14 19 -31 17
-38 -3 -8 2 -13 13 -13 16 0 17 5 10 48 -11 63 -11 74 0 68 5 -3 14 -36 21
-73 7 -38 16 -78 21 -89 13 -36 -1 -35 -37 2 -19 19 -40 34 -47 34 -7 0 -27
14 -44 31 -27 24 -33 38 -33 70 0 49 28 109 41 88 4 -8 6 -23 3 -34z m1291 -5
c47 -57 28 -65 -22 -9 -44 48 -50 58 -29 55 8 -1 31 -22 51 -46z m-6649 -15
c-33 -30 -61 -53 -64 -50 -2 2 11 17 29 32 18 15 45 38 59 50 51 45 33 20 -24
-32z m212 38 c-7 -18 -139 -136 -144 -130 -6 5 26 37 111 110 32 28 39 32 33
20z m1032 -19 c19 -50 12 -90 -21 -118 -17 -14 -36 -26 -43 -26 -7 0 -21 -9
-31 -20 -10 -12 -25 -18 -32 -16 -9 4 -13 0 -11 -11 2 -9 -4 -18 -12 -20 -9
-3 -11 -1 -5 4 6 4 11 15 11 23 2 23 45 162 49 158 2 -2 -1 -23 -6 -47 -10
-47 -7 -71 11 -71 6 0 8 5 5 10 -3 6 -1 10 4 10 19 0 62 98 55 125 -8 34 13
33 26 -1z m45 16 c3 -5 1 -10 -4 -10 -6 0 -11 5 -11 10 0 6 2 10 4 10 3 0 8
-4 11 -10z m4385 -55 c10 -12 10 -15 -4 -15 -9 0 -16 7 -16 15 0 8 2 15 4 15
2 0 9 -7 16 -15z m-382 -57 c7 -26 7 -38 -1 -41 -6 -2 11 -34 38 -73 27 -38
62 -89 79 -114 47 -69 64 -86 77 -73 8 8 8 25 1 60 -6 26 -7 52 -2 56 4 5 14
-23 21 -62 7 -39 18 -76 26 -82 7 -6 13 -16 13 -22 0 -8 -4 -7 -11 0 -9 9 -15
8 -26 -3 -17 -16 -7 -38 13 -30 8 3 14 -1 14 -9 0 -8 5 -15 12 -15 6 0 9 -3 5
-6 -3 -3 -19 3 -35 15 -25 17 -50 22 -148 26 -179 9 -202 13 -219 39 -16 24
-16 25 82 304 17 46 33 50 45 11 5 -16 6 -12 3 16 -2 22 -9 41 -15 43 -5 2
-10 9 -10 15 0 22 28 -18 38 -55z m1121 6 c18 -25 31 -48 28 -50 -5 -5 -67 79
-67 90 0 12 8 5 39 -40z m-704 6 c3 -5 1 -10 -4 -10 -6 0 -11 5 -11 10 0 6 2
10 4 10 3 0 8 -4 11 -10z m-4861 -15 c-4 -8 -11 -15 -16 -15 -6 0 -5 6 2 15 7
8 14 15 16 15 2 0 1 -7 -2 -15z m501 -90 c58 -186 56 -172 37 -195 -13 -15
-34 -21 -87 -26 -38 -3 -106 -9 -150 -13 -44 -4 -82 -4 -83 1 -2 4 -7 6 -11 4
-4 -3 -8 3 -9 12 -1 26 30 142 39 142 4 0 1 -20 -6 -43 -13 -45 -6 -75 14 -63
6 4 30 33 53 64 43 58 44 60 102 130 40 49 43 57 20 48 -14 -5 -15 -4 -4 9 7
8 16 13 20 10 4 -3 11 3 14 12 10 25 20 7 51 -92z m-1152 61 c-10 -13 -19 -23
-21 -21 -5 5 22 45 31 45 4 0 0 -11 -10 -24z m1047 -14 c0 -5 -19 -19 -42 -32
-48 -26 -46 -20 4 16 38 27 38 27 38 16z m4187 -78 c-6 -6 -117 69 -117 79 0
4 27 -11 61 -34 33 -22 58 -43 56 -45z m-7329 59 c-10 -2 -28 -2 -40 0 -13 2
-5 4 17 4 22 1 32 -1 23 -4z m85 -10 c-7 -2 -21 -2 -30 0 -10 3 -4 5 12 5 17
0 24 -2 18 -5z m7321 -74 c-3 -5 -10 -7 -15 -3 -5 3 -7 10 -3 15 3 5 10 7 15
3 5 -3 7 -10 3 -15z m-4464 -14 c-6 -8 -9 -23 -5 -36 8 -24 -20 -95 -41 -103
-8 -3 -21 -3 -30 1 -15 6 -15 8 2 20 10 8 17 15 15 16 -8 4 10 47 20 47 5 0 9
6 9 13 0 14 28 57 37 57 3 0 0 -7 -7 -15z m-365 -32 c-9 -38 -62 -109 -91
-122 -41 -18 -51 -12 -16 9 18 11 49 47 70 80 20 32 39 59 41 60 2 0 0 -12 -4
-27z m4880 -5 c5 4 5 2 2 -4 -3 -6 7 -37 23 -68 17 -31 30 -59 30 -62 0 -2
-13 -4 -29 -4 -24 0 -31 6 -44 43 -19 48 -19 127 -1 102 6 -8 15 -11 19 -7z
m395 -58 c4 -3 12 -15 19 -28 7 -13 27 -32 44 -42 l32 -20 -27 0 c-31 0 -72
44 -99 108 -25 59 -23 77 3 27 11 -22 24 -42 28 -45z m-2561 15 c-1 -29 -1
-29 -9 -5 -4 14 -8 34 -9 45 -1 16 1 17 9 5 5 -8 9 -28 9 -45z m-458 -1 c-9
-28 -9 -29 -10 -3 -1 14 2 29 6 32 11 12 13 2 4 -29z m-2102 -93 c-6 -16 -18
-32 -27 -36 -14 -5 -15 -4 -4 6 20 21 14 41 -10 39 -34 -3 -40 -1 -33 10 3 6
24 10 45 10 39 0 39 0 29 -29z m-410 -33 c-14 -65 -17 -68 -14 -13 4 69 4 67
14 61 5 -4 5 -23 0 -48z m876 43 c-16 -14 -55 -23 -55 -12 0 5 12 12 28 14 15
2 29 5 32 6 2 0 0 -3 -5 -8z m2152 -121 c15 -12 44 -28 63 -36 27 -12 32 -17
20 -24 -28 -18 -47 -10 -94 40 -47 50 -58 70 -69 125 -5 21 2 13 23 -27 16
-31 42 -66 57 -78z m-117 110 c0 -5 -2 -10 -4 -10 -3 0 -8 5 -11 10 -3 6 -1
10 4 10 6 0 11 -4 11 -10z m-3010 -10 c0 -5 -5 -10 -11 -10 -5 0 -7 5 -4 10 3
6 8 10 11 10 2 0 4 -4 4 -10z m715 0 c3 -5 1 -10 -4 -10 -6 0 -11 5 -11 10 0
6 2 10 4 10 3 0 8 -4 11 -10z m4791 -1 c6 -10 -18 -17 -49 -14 -23 3 -27 0
-22 -16 4 -10 2 -19 -4 -19 -17 0 -25 42 -10 51 16 10 78 8 85 -2z m-5083 -14
c-3 -9 -8 -14 -10 -11 -3 3 -2 9 2 15 9 16 15 13 8 -4z m5436 -27 c0 -33 -2
-38 -9 -23 -12 28 -12 65 0 65 6 0 10 -19 9 -42z m-585 25 c-5 -5 -11 -12 -15
-16 -3 -4 -12 -1 -19 8 -11 13 -9 15 15 15 16 0 24 -3 19 -7z m49 -10 c-7 -2
-19 -2 -25 0 -7 3 -2 5 12 5 14 0 19 -2 13 -5z m-6443 -28 c-7 -8 -17 -15 -23
-15 -5 0 -2 9 8 20 21 23 35 19 15 -5z m6095 15 c7 -12 -12 -12 -40 0 -18 8
-17 9 7 9 15 1 30 -3 33 -9z m-2376 -22 c-26 -49 -84 -84 -126 -76 -12 2 3 15
49 41 37 21 70 42 73 47 12 20 15 9 4 -12z m-155 -61 c-4 -12 -11 -38 -15 -57
-7 -28 -8 -25 -4 18 l4 52 -43 -30 c-77 -53 -115 -115 -116 -190 0 -14 -5 -32
-10 -40 -13 -20 -13 25 0 105 12 71 28 115 44 115 6 0 38 13 71 29 66 31 80
31 69 -2z m4593 -19 c-3 -8 -6 -5 -6 6 -1 11 2 17 5 13 3 -3 4 -12 1 -19z
m-8026 -61 c-10 -9 -11 -8 -5 6 3 10 9 15 12 12 3 -3 0 -11 -7 -18z m3859 -7
c0 -5 -2 -10 -4 -10 -3 0 -8 5 -11 10 -3 6 -1 10 4 10 6 0 11 -4 11 -10z
m4087 -17 c1 -26 0 -27 -13 -8 -17 23 -18 35 -1 35 6 0 13 -12 14 -27z m-3754
-20 c-7 -2 -19 -2 -25 0 -7 3 -2 5 12 5 14 0 19 -2 13 -5z m-1095 -139 c-7
-15 -14 -21 -16 -15 -2 7 2 18 8 26 18 22 21 18 8 -11z m4927 -4 c3 -5 1 -10
-4 -10 -6 0 -11 5 -11 10 0 6 2 10 4 10 3 0 8 -4 11 -10z m-5573 -41 c27 -35
36 -134 14 -142 -19 -8 -48 2 -41 13 3 5 -1 14 -8 22 -35 35 -45 91 -22 128
10 17 36 8 57 -21z m-282 -26 c0 -13 -3 -13 -15 -3 -8 7 -12 16 -9 21 8 13 24
1 24 -18z m3880 17 c0 -5 -2 -10 -4 -10 -3 0 -8 5 -11 10 -3 6 -1 10 4 10 6 0
11 -4 11 -10z m1597 -32 c-3 -7 -5 -2 -5 12 0 14 2 19 5 13 2 -7 2 -19 0 -25z
m40 0 c-3 -7 -5 -2 -5 12 0 14 2 19 5 13 2 -7 2 -19 0 -25z m-3027 -63 c0 -19
-8 -39 -20 -50 -20 -18 -20 -18 -4 14 12 25 14 38 5 63 -15 41 -13 47 4 24 8
-11 15 -34 15 -51z m1035 0 c-22 -93 -21 -95 28 -97 l42 -1 -45 -6 c-25 -4
-49 -5 -54 -2 -14 6 0 116 19 145 10 15 19 25 21 23 2 -1 -3 -30 -11 -62z
m-1085 38 c-1 -5 -7 -19 -15 -33 l-14 -25 -1 26 c0 14 3 29 7 32 9 9 23 9 23
0z m1180 -25 c0 -33 -36 -105 -47 -94 -3 3 1 16 10 29 9 13 19 40 22 61 9 45
15 46 15 4z m1897 10 c-3 -8 -6 -5 -6 6 -1 11 2 17 5 13 3 -3 4 -12 1 -19z
m-6757 -13 c-10 -12 -16 -13 -26 -4 -20 16 -18 19 12 19 22 0 25 -2 14 -15z
m3280 10 c0 -2 -10 -10 -22 -16 -21 -11 -22 -11 -9 4 13 16 31 23 31 12z m420
-22 c0 -28 -17 -50 -29 -38 -8 8 -6 18 5 33 18 27 24 28 24 5z m-244 -39 c-4
-20 -10 -34 -12 -31 -3 3 -2 21 2 41 3 21 9 35 11 32 3 -3 2 -21 -1 -42z
m3588 -44 c4 -8 0 -6 -8 4 -9 11 -15 34 -15 50 1 31 1 31 8 -4 4 -20 11 -42
15 -50z m-5181 63 c-7 -2 -19 -2 -25 0 -7 3 -2 5 12 5 14 0 19 -2 13 -5z
m-1003 -18 c0 -8 -7 -15 -15 -15 -8 0 -15 5 -15 11 0 5 5 7 10 4 6 -3 10 -1
10 4 0 6 2 11 5 11 3 0 5 -7 5 -15z m433 8 c-7 -2 -19 -2 -25 0 -7 3 -2 5 12
5 14 0 19 -2 13 -5z m120 0 c-7 -2 -19 -2 -25 0 -7 3 -2 5 12 5 14 0 19 -2 13
-5z m235 0 c-15 -2 -42 -2 -60 0 -18 2 -6 4 27 4 33 0 48 -2 33 -4z m544 -25
c-8 -8 -9 -4 -5 13 4 13 8 18 11 10 2 -7 -1 -18 -6 -23z m1170 13 c14 -17 14
-20 2 -25 -8 -3 -12 -2 -9 3 3 5 1 12 -5 16 -9 5 -15 25 -7 25 1 0 10 -9 19
-19z m2408 4 c-10 -12 -16 -13 -26 -4 -20 16 -18 19 12 19 22 0 25 -2 14 -15z
m-2263 -11 c-3 -3 -12 -4 -19 -1 -8 3 -5 6 6 6 11 1 17 -2 13 -5z m853 -30 c0
-2 -12 -4 -27 -4 -21 0 -24 3 -14 9 13 8 41 5 41 -5z m126 -6 c4 -5 -4 -8 -17
-6 -12 1 -24 8 -26 15 -5 14 34 6 43 -9z m-2976 8 c0 -11 -19 -15 -25 -6 -3 5
1 10 9 10 9 0 16 -2 16 -4z m-2055 -16 c4 -6 -5 -10 -20 -10 -15 0 -24 4 -20
10 3 6 12 10 20 10 8 0 17 -4 20 -10z m815 -10 c0 -5 -4 -10 -9 -10 -6 0 -13
5 -16 10 -3 6 1 10 9 10 9 0 16 -4 16 -10z m-2343 -67 c-3 -10 -5 -4 -5 12 0
17 2 24 5 18 2 -7 2 -21 0 -30z m8373 27 c0 -5 -2 -10 -4 -10 -3 0 -8 5 -11
10 -3 6 -1 10 4 10 6 0 11 -4 11 -10z m30 6 c0 -3 -4 -8 -10 -11 -5 -3 -10 -1
-10 4 0 6 5 11 10 11 6 0 10 -2 10 -4z m-8462 -18 c-6 -18 -58 -23 -58 -6 0 8
13 15 31 16 21 2 30 -2 27 -10z m162 2 c0 -5 -11 -10 -25 -10 -14 0 -25 5 -25
10 0 6 11 10 25 10 14 0 25 -4 25 -10z m8450 1 c0 -5 -9 -7 -20 -4 -11 3 -20
7 -20 9 0 2 9 4 20 4 11 0 20 -4 20 -9z m-8280 -58 c0 -10 -4 -14 -8 -8 -4 6
-11 13 -16 18 -5 4 -2 7 7 7 10 0 17 -8 17 -17z m2967 -75 c-2 -18 -4 -4 -4
32 0 36 2 50 4 33 2 -18 2 -48 0 -65z m3230 70 c-3 -8 -6 -5 -6 6 -1 11 2 17
5 13 3 -3 4 -12 1 -19z m-957 4 c0 -5 -7 -17 -15 -28 -14 -18 -14 -17 -4 9 12
27 19 34 19 19z m-3403 -99 c-2 -16 -4 -5 -4 22 0 28 2 40 4 28 2 -13 2 -35 0
-50z m4545 5 c3 -37 0 -58 -6 -58 -7 0 -10 22 -8 61 5 74 8 73 14 -3z m2968
47 c0 -8 -2 -15 -4 -15 -2 0 -6 7 -10 15 -3 8 -1 15 4 15 6 0 10 -7 10 -15z
m-3998 -46 c-3 -21 -7 -27 -13 -18 -4 7 -3 21 2 31 14 25 16 23 11 -13z m3188
17 c0 -8 -4 -18 -10 -21 -5 -3 -10 3 -10 14 0 12 5 21 10 21 6 0 10 -6 10 -14z
m-7684 -104 c-14 -13 -17 11 -10 60 l9 53 3 -54 c2 -29 1 -56 -2 -59z m6657
31 c2 -29 0 -53 -4 -53 -5 0 -9 28 -8 63 1 71 5 67 12 -10z m-7717 -8 c1 -30
-2 -58 -7 -61 -5 -3 -9 25 -9 62 0 80 12 79 16 -1z m4424 -80 c16 -17 30 -35
30 -40 0 -13 64 -57 104 -72 29 -11 29 -11 6 -12 -14 0 -43 6 -65 14 -49 18
-45 18 -45 2 0 -8 18 -22 40 -32 32 -15 37 -20 26 -29 -11 -8 -16 -43 -20
-131 l-5 -120 19 43 c11 23 24 42 31 42 8 0 8 -4 1 -12 -19 -25 -23 -75 -9
-117 16 -45 7 -54 -17 -19 -15 22 -16 21 -16 -27 0 -28 -5 -57 -10 -65 -7 -11
1 -26 33 -58 l42 -44 -40 4 -40 3 -7 -50 c-4 -27 -5 -58 -2 -67 4 -12 0 -15
-16 -11 -33 9 -24 -24 13 -44 l32 -17 -30 -6 c-36 -6 -55 -55 -37 -95 11 -23
10 -24 -17 -19 -23 5 -29 2 -34 -15 -3 -12 1 -34 9 -49 19 -37 18 -47 -12 -92
-33 -49 -42 -45 -20 10 20 50 21 88 1 45 -82 -180 -97 -216 -187 -470 -18 -52
-49 -94 -69 -95 -4 0 -17 8 -29 18 l-23 19 17 79 c10 43 33 124 52 179 36 106
42 136 19 95 -16 -27 -18 -19 -9 29 4 21 12 31 24 31 22 0 30 26 36 125 7 110
9 120 28 119 11 -1 16 6 16 22 0 14 -6 24 -14 24 -13 0 -13 4 0 28 16 32 18
58 4 67 -6 4 -7 11 -4 17 4 6 1 14 -6 18 -9 6 -7 11 9 19 28 15 27 31 -1 23
-23 -5 -23 -5 -5 16 14 15 17 29 12 50 -3 18 -2 33 4 37 19 11 12 27 -9 20
-18 -6 -19 -4 -5 21 9 19 11 33 4 45 -12 22 -12 32 0 24 5 -3 13 0 17 6 3 6 0
15 -7 20 -12 7 -12 9 0 9 10 0 12 12 9 53 -3 28 -9 60 -13 70 -5 12 -2 17 10
17 9 0 14 4 11 9 -4 5 3 7 15 4 19 -5 20 -3 14 29 -4 20 0 74 10 124 24 130
35 164 55 164 15 0 16 6 9 43 -4 23 -8 56 -8 72 0 27 2 25 19 -19 11 -27 33
-63 50 -81z m4274 70 c-1 -73 -14 -85 -14 -13 0 44 5 68 14 68 1 0 1 -25 0
-55z m-3027 -47 c-3 -7 -5 -2 -5 12 0 14 2 19 5 13 2 -7 2 -19 0 -25z m-1574
-50 c-3 -32 -9 -55 -14 -52 -9 5 -6 57 6 94 11 33 13 20 8 -42z m1325 23 c-10
-16 -6 -34 24 -108 19 -48 41 -110 47 -138 7 -27 15 -57 19 -65 3 -8 7 -28 9
-45 2 -16 12 -55 22 -85 29 -84 32 -136 16 -270 -8 -67 -14 -156 -14 -198 0
-93 49 -375 84 -492 24 -79 55 -259 59 -339 0 -19 -4 -36 -11 -38 -9 -3 -11 9
-6 48 5 38 3 50 -5 45 -8 -5 -12 1 -12 15 0 68 -180 563 -198 545 -2 -2 6 -22
17 -45 12 -23 24 -62 27 -88 4 -27 12 -53 19 -58 19 -15 70 -141 88 -215 36
-151 35 -181 -3 -45 -31 111 -79 225 -96 225 -15 0 -20 18 -28 96 -5 51 -43
146 -77 196 -20 28 -24 48 -11 48 5 0 19 -23 32 -51 14 -28 26 -47 27 -42 5
13 -53 144 -60 137 -3 -3 -3 -12 0 -20 3 -8 2 -14 -2 -14 -10 0 -44 43 -45 58
0 6 -4 12 -10 12 -5 0 -10 16 -10 35 0 19 -11 67 -24 107 -27 83 -50 239 -40
270 3 11 1 24 -5 27 -8 6 -7 18 4 44 22 53 19 81 -14 116 -21 23 -25 31 -13
31 8 0 23 -7 32 -15 15 -14 18 -10 34 46 18 65 16 92 -3 38 -17 -50 -21 -30
-6 33 7 31 11 59 8 61 -2 3 10 15 26 26 17 12 30 26 28 30 -1 4 9 18 23 32 15
13 19 19 10 12 -33 -25 -106 -53 -140 -52 -35 0 -35 0 10 13 58 16 107 40 145
71 37 30 38 30 23 6z m-1261 -73 c-3 -8 -6 -5 -6 6 -1 11 2 17 5 13 3 -3 4
-12 1 -19z m-3721 -75 c-10 -10 -19 5 -10 18 6 11 8 11 12 0 2 -7 1 -15 -2
-18z m4179 -213 c4 -6 -3 -9 -16 -7 -16 1 -27 -6 -36 -23 -11 -22 -13 -23 -13
-4 0 36 48 61 65 34z m519 -15 c-4 -16 0 -35 11 -53 l18 -27 -21 19 c-21 18
-30 65 -15 79 12 12 13 7 7 -18z m-526 -29 c2 -10 -2 -23 -9 -30 -9 -8 -10 -8
-5 2 4 6 4 17 0 24 -5 8 -10 6 -15 -8 -7 -18 -8 -18 -8 2 -2 37 30 46 37 10z
m24 6 c3 -9 2 -26 -2 -37 -6 -15 -8 -10 -8 18 0 40 3 47 10 19z m271 -19 c-7
-2 -19 -2 -25 0 -7 3 -2 5 12 5 14 0 19 -2 13 -5z m-325 -45 c19 -22 9 -24
-12 -2 -9 8 -16 23 -15 32 0 14 2 14 6 2 3 -8 12 -23 21 -32z m334 10 c-7 -7
-12 -8 -12 -2 0 14 12 26 19 19 2 -3 -1 -11 -7 -17z m-4492 -18 c0 -5 -18 -10
-40 -10 -35 0 -40 -3 -40 -24 0 -19 4 -22 25 -18 24 4 25 2 25 -47 l0 -52 -37
3 -38 3 -3 68 -3 67 -39 0 c-22 0 -40 5 -40 10 0 6 38 10 95 10 57 0 95 -4 95
-10z m58 -23 c3 -26 6 -27 63 -27 59 0 59 0 59 30 0 20 5 30 15 30 11 0 15
-18 17 -77 2 -51 7 -78 16 -81 7 -2 12 0 11 5 -1 4 -1 41 0 81 l1 72 90 0 c53
0 90 -4 90 -10 0 -6 -32 -10 -75 -10 -68 0 -75 -2 -75 -20 0 -18 7 -20 75 -20
60 0 75 -3 75 -15 0 -11 -12 -15 -50 -15 -43 0 -50 -3 -50 -20 0 -18 7 -20 55
-20 30 0 55 -4 55 -10 0 -5 -8 -11 -17 -12 -10 0 -22 -2 -28 -3 -5 -2 -34 -3
-64 -4 -30 0 -51 -4 -48 -7 4 -4 100 -8 214 -10 231 -4 233 -4 233 -15 0 -14
-56 -18 -255 -17 -110 0 -228 -4 -263 -10 -48 -9 -90 -7 -185 5 -74 9 -163 13
-227 10 -58 -2 -118 -1 -135 3 l-30 6 37 11 c21 7 79 9 140 6 61 -3 126 -1
159 6 55 11 57 13 63 49 3 20 6 57 6 80 0 49 23 55 28 9z m692 -12 c0 -38 -3
-45 -19 -45 -15 0 -21 -8 -23 -32 -2 -18 -7 -33 -13 -33 -5 0 -11 15 -13 33
-2 23 -8 32 -21 32 -14 0 -18 -8 -17 -32 1 -31 -1 -32 -39 -33 l-40 0 -3 78
-3 77 96 0 95 0 0 -45z m210 35 c0 -6 -32 -10 -75 -10 -68 0 -75 -2 -75 -20 0
-18 7 -20 75 -20 60 0 75 -3 75 -15 0 -11 -12 -15 -50 -15 -43 0 -50 -3 -50
-20 0 -17 7 -20 50 -20 36 0 50 -4 50 -14 0 -10 -15 -13 -62 -10 -35 1 -75 3
-90 3 l-28 1 0 75 0 75 90 0 c53 0 90 -4 90 -10z m-1510 -170 c13 -8 13 -10 0
-14 -41 -14 -80 -9 -80 9 0 17 55 21 80 5z m4549 -390 c5 -16 8 -30 6 -30 -3
0 -11 14 -20 30 -9 17 -11 30 -6 30 5 0 14 -13 20 -30z m-102 -289 c-38 -43
-145 -317 -148 -378 0 -11 -3 -13 -6 -5 -8 21 45 209 82 289 19 41 32 80 29
85 -4 6 0 14 7 19 8 4 14 12 14 16 1 4 7 26 15 47 l15 40 3 -48 c2 -32 -2 -54
-11 -65z m701 54 c-3 -3 -9 2 -12 12 -6 14 -5 15 5 6 7 -7 10 -15 7 -18z
m-939 -179 c-7 -19 -21 -37 -31 -40 -22 -5 -22 -4 12 46 30 44 36 42 19 -6z
m-359 -86 c0 -5 -5 -10 -11 -10 -5 0 -7 5 -4 10 3 6 8 10 11 10 2 0 4 -4 4
-10z m185 -40 c22 -11 48 -20 58 -20 10 0 16 -4 13 -8 -3 -5 -18 -7 -34 -4
-42 6 -69 -12 -77 -50 -25 -129 -29 -139 -54 -154 -14 -8 -18 -13 -9 -10 9 3
27 -4 40 -14 13 -11 18 -19 13 -20 -6 0 -17 6 -23 12 -10 10 -14 10 -21 0 -6
-10 -15 -9 -41 5 -22 12 -34 14 -37 7 -2 -6 -11 -20 -19 -30 -14 -18 -15 -17
-10 15 8 45 23 61 57 61 19 0 34 8 43 23 18 28 46 135 46 176 0 37 4 37 55 11z
m643 -15 c-3 -3 -9 2 -12 12 -6 14 -5 15 5 6 7 -7 10 -15 7 -18z m712 11 c0
-2 -8 -10 -17 -17 -16 -13 -17 -12 -4 4 13 16 21 21 21 13z m-602 -57 c-3 -8
-7 -3 -11 10 -4 17 -3 21 5 13 5 -5 8 -16 6 -23z m1382 -19 c0 -5 -5 -10 -11
-10 -5 0 -7 5 -4 10 3 6 8 10 11 10 2 0 4 -4 4 -10z m-90 -50 c0 -5 -4 -10
-10 -10 -5 0 -10 5 -10 10 0 6 5 10 10 10 6 0 10 -4 10 -10z m-2230 -20 c0 -5
-5 -10 -11 -10 -5 0 -7 5 -4 10 3 6 8 10 11 10 2 0 4 -4 4 -10z m2380 -10 c0
-5 -4 -10 -10 -10 -5 0 -10 5 -10 10 0 6 5 10 10 10 6 0 10 -4 10 -10z m-2103
-42 c-3 -7 -5 -2 -5 12 0 14 2 19 5 13 2 -7 2 -19 0 -25z m124 -61 c-1 -23 -9
-49 -17 -57 -12 -12 -14 -11 -14 15 0 32 21 97 29 89 3 -3 4 -24 2 -47z m2109
-107 c0 -5 -2 -10 -4 -10 -3 0 -8 5 -11 10 -3 6 -1 10 4 10 6 0 11 -4 11 -10z
m-450 -10 c0 -5 -5 -10 -11 -10 -5 0 -7 5 -4 10 3 6 8 10 11 10 2 0 4 -4 4
-10z m-1967 -17 c7 2 18 -2 25 -9 10 -12 10 -14 -3 -14 -17 0 -75 27 -75 36 0
2 9 0 21 -6 11 -7 26 -10 32 -7z m232 -13 c-9 -16 -22 -30 -29 -30 -9 0 -4 11
13 30 33 37 35 37 16 0z m1602 8 c-3 -8 -6 -5 -6 6 -1 11 2 17 5 13 3 -3 4
-12 1 -19z m187 -10 c6 -4 -5 -7 -24 -7 -19 1 -27 3 -17 6 9 2 17 12 18 21 0
14 2 14 6 2 3 -8 11 -18 17 -22z m-1835 7 c-10 -10 -22 -13 -35 -8 -16 6 -15
8 11 14 17 4 32 7 35 8 2 0 -3 -6 -11 -14z m-459 -25 c0 -5 -4 -10 -10 -10 -5
0 -10 5 -10 10 0 6 5 10 10 10 6 0 10 -4 10 -10z m2130 -11 c0 -6 -4 -7 -10
-4 -5 3 -10 11 -10 16 0 6 5 7 10 4 6 -3 10 -11 10 -16z m610 11 c0 -5 -4 -10
-10 -10 -5 0 -10 5 -10 10 0 6 5 10 10 10 6 0 10 -4 10 -10z m-551 -84 c1 -55
-5 -42 -12 24 -3 34 -2 47 3 35 5 -11 9 -38 9 -59z m-2105 33 c-3 -5 -10 -7
-15 -3 -5 3 -7 10 -3 15 3 5 10 7 15 3 5 -3 7 -10 3 -15z m2346 -44 c7 -25 10
-48 6 -52 -3 -3 -6 0 -6 8 -1 8 -9 32 -20 54 -23 48 -25 62 -6 46 7 -6 19 -32
26 -56z m-2010 29 c0 -8 -5 -12 -10 -9 -6 4 -8 11 -5 16 9 14 15 11 15 -7z
m-460 -4 c0 -5 -4 -10 -10 -10 -5 0 -10 5 -10 10 0 6 5 10 10 10 6 0 10 -4 10
-10z m2815 0 c3 -5 1 -10 -4 -10 -6 0 -11 5 -11 10 0 6 2 10 4 10 3 0 8 -4 11
-10z m-2580 -127 c-15 -35 -29 -62 -31 -60 -6 5 25 127 38 150 l13 22 3 -24
c2 -13 -8 -53 -23 -88z m-285 57 c0 -5 -4 -10 -10 -10 -5 0 -10 5 -10 10 0 6
5 10 10 10 6 0 10 -4 10 -10z m2920 -10 c0 -5 -4 -10 -10 -10 -5 0 -10 5 -10
10 0 6 5 10 10 10 6 0 10 -4 10 -10z m-653 -22 c-3 -8 -6 -5 -6 6 -1 11 2 17
5 13 3 -3 4 -12 1 -19z m247 -57 c-8 -10 -24 14 -24 37 l1 27 13 -30 c7 -16
12 -32 10 -34z m-2444 39 c0 -5 -2 -10 -4 -10 -3 0 -8 5 -11 10 -3 6 -1 10 4
10 6 0 11 -4 11 -10z m2780 0 c0 -5 -4 -10 -10 -10 -5 0 -10 5 -10 10 0 6 5
10 10 10 6 0 10 -4 10 -10z m114 -31 c-3 -5 -10 -7 -15 -3 -5 3 -7 10 -3 15 3
5 10 7 15 3 5 -3 7 -10 3 -15z m-982 -34 c-5 -31 -22 -44 -22 -18 0 15 17 43
26 43 1 0 -1 -11 -4 -25z m-1696 -40 c-9 -20 -20 -34 -25 -31 -5 4 0 24 12 46
26 47 34 37 13 -15z m-256 41 c0 -3 -4 -8 -10 -11 -5 -3 -10 -1 -10 4 0 6 5
11 10 11 6 0 10 -2 10 -4z m2537 -58 c-3 -7 -5 -2 -5 12 0 14 2 19 5 13 2 -7
2 -19 0 -25z m-341 -164 c-4 -14 -11 -21 -20 -18 -11 4 -10 13 3 50 14 41 16
43 19 19 2 -15 1 -38 -2 -51z m-2175 15 c-5 -13 -10 -19 -10 -12 -1 15 10 45
15 40 3 -2 0 -15 -5 -28z m2806 -21 c-3 -8 -6 -5 -6 6 -1 11 2 17 5 13 3 -3 4
-12 1 -19z"/>
<path d="M4444 3966 c2 -108 1 -117 -11 -85 -12 33 -13 32 -10 -34 2 -43 8
-73 18 -82 13 -13 15 -2 17 97 0 62 -3 138 -8 168 -7 46 -8 35 -6 -64z"/>
<path d="M4538 3540 c-4 -14 -8 -45 -8 -70 1 -35 3 -41 11 -27 5 9 9 41 7 70
-2 41 -5 47 -10 27z"/>
<path d="M4518 3343 c7 -3 16 -2 19 1 4 3 -2 6 -13 5 -11 0 -14 -3 -6 -6z"/>
<path d="M7223 3796 c-13 -41 -25 -80 -28 -88 -5 -13 48 -105 70 -121 5 -4 48
-6 93 -6 46 1 78 5 72 9 -7 4 -9 13 -6 19 9 14 -43 15 -78 1 -87 -33 -158 67
-109 151 10 16 26 32 36 35 10 3 17 9 15 12 -2 4 -10 19 -17 35 -8 15 -17 27
-20 27 -3 0 -16 -33 -28 -74z"/>
<path d="M7307 3659 c12 -12 24 -21 27 -18 2 2 -8 13 -22 23 l-27 19 22 -24z"/>
<path d="M3262 3851 c-26 -36 -27 -41 -7 -41 23 0 49 -49 47 -89 l-2 -36 14
26 c13 22 13 32 -1 75 -8 27 -18 59 -22 72 -6 23 -6 23 -29 -7z"/>
<path d="M3199 3683 c-13 -16 -12 -17 4 -4 16 13 21 21 13 21 -2 0 -10 -8 -17
-17z"/>
<path d="M3249 3657 c-34 -19 -40 -20 -78 -7 -37 12 -44 12 -58 -3 -26 -26
-10 -30 73 -21 63 7 79 13 92 32 17 26 18 26 -29 -1z"/>
<path d="M3731 3130 c0 -14 8 -43 19 -65 20 -39 20 -39 16 -9 -3 18 -12 47
-20 65 -13 31 -14 32 -15 9z"/>
<path d="M4721 2304 c0 -11 3 -14 6 -6 3 7 2 16 -1 19 -3 4 -6 -2 -5 -13z"/>
<path d="M5563 2435 c-3 -9 -3 -18 -1 -21 3 -3 8 4 11 16 6 23 -1 27 -10 5z"/>
<path d="M5620 1640 c0 -5 5 -10 11 -10 5 0 7 5 4 10 -3 6 -8 10 -11 10 -2 0
-4 -4 -4 -10z"/>
<path d="M780 2006 c0 -21 4 -24 35 -23 30 1 35 5 35 24 0 20 -5 23 -35 23
-30 0 -35 -3 -35 -24z"/>
<path d="M1267 2093 c-4 -3 -7 -12 -7 -20 0 -9 18 -13 65 -13 58 0 65 2 65 20
0 18 -7 20 -58 20 -32 0 -62 -3 -65 -7z"/>
<path d="M5815 4225 c8 -92 44 -253 57 -261 19 -12 2 123 -27 227 -15 51 -29
96 -32 99 -2 2 -1 -27 2 -65z"/>
<path d="M523 4063 c0 -9 4 -10 14 -2 7 6 13 12 13 14 0 1 -6 2 -13 2 -8 0
-14 -6 -14 -14z"/>
<path d="M5825 4005 c12 -83 18 -105 27 -105 14 0 5 55 -16 100 -16 35 -16 35
-11 5z"/>
<path d="M9730 3988 c0 -18 18 -34 28 -24 3 4 -2 14 -11 23 -16 16 -17 16 -17
1z"/>
<path d="M9773 3945 c0 -8 7 -15 15 -15 12 0 12 3 2 15 -7 8 -13 15 -15 15 -1
0 -2 -7 -2 -15z"/>
<path d="M5868 3894 c-18 -17 -5 -56 39 -123 26 -40 49 -68 51 -62 5 15 -82
194 -90 185z"/>
<path d="M5820 3843 c0 -28 65 -193 98 -248 20 -33 36 -67 35 -75 -1 -8 4 -1
12 15 8 17 14 49 15 72 0 36 -5 47 -34 74 -33 30 -58 62 -104 139 -12 19 -22
30 -22 23z"/>
<path d="M5911 3550 c14 -31 19 -36 19 -24 0 6 -7 19 -16 30 -14 18 -14 18 -3
-6z"/>
<path d="M5930 3501 c0 -5 5 -13 10 -16 6 -3 10 -2 10 4 0 5 -4 13 -10 16 -5
3 -10 2 -10 -4z"/>
<path d="M5650 3442 c0 -5 9 -17 19 -26 11 -10 22 -28 25 -42 4 -13 13 -24 21
-24 11 0 6 14 -17 50 -31 46 -48 61 -48 42z"/>
<path d="M5966 3437 c3 -10 9 -15 12 -12 3 3 0 11 -7 18 -10 9 -11 8 -5 -6z"/>
<path d="M3920 2930 c0 -6 11 -8 28 -4 39 10 40 14 4 14 -18 0 -32 -5 -32 -10z"/>
<path d="M3845 2560 c-3 -5 -1 -10 4 -10 6 0 11 5 11 10 0 6 -2 10 -4 10 -3 0
-8 -4 -11 -10z"/>
<path d="M3774 2515 c-16 -12 -16 -14 -3 -15 9 0 22 7 29 15 16 19 0 19 -26 0z"/>
<path d="M1696 2092 c-15 -14 -4 -32 19 -32 18 0 25 -6 26 -20 1 -11 2 -26 3
-32 0 -7 16 -14 34 -16 l33 -3 -3 50 c-3 51 -3 51 -38 52 -19 0 -43 2 -52 4
-9 2 -19 0 -22 -3z"/>
<path d="M2230 2076 c0 -9 18 -16 52 -20 29 -4 56 -13 60 -19 4 -7 8 2 8 21
l0 32 -60 0 c-44 0 -60 -4 -60 -14z"/>
<path d="M2446 2075 c4 -11 21 -15 59 -15 38 0 55 4 59 15 4 12 -6 15 -59 15
-53 0 -63 -3 -59 -15z m101 -1 c-3 -3 -12 -4 -19 -1 -8 3 -5 6 6 6 11 1 17 -2
13 -5z"/>
<path d="M4247 1970 c-3 -11 -1 -20 4 -20 5 0 9 9 9 20 0 11 -2 20 -4 20 -2 0
-6 -9 -9 -20z"/>
<path d="M1768 1953 c7 -3 16 -2 19 1 4 3 -2 6 -13 5 -11 0 -14 -3 -6 -6z"/>
<path d="M4235 1929 c-4 -6 -5 -12 -2 -15 2 -3 7 2 10 11 7 17 1 20 -8 4z"/>
<path d="M7480 1487 c-19 -20 -56 -26 -52 -9 1 8 -12 11 -45 10 -44 -1 -45 -2
-10 -5 43 -5 51 -23 10 -23 -39 -1 -76 -23 -80 -49 -3 -22 14 -26 75 -21 13 1
28 -3 35 -8 7 -5 34 -12 62 -15 27 -3 51 -10 53 -16 5 -15 54 -14 88 3 22 11
41 12 79 5 33 -6 67 -6 102 2 29 5 58 7 65 3 9 -5 10 -4 3 3 -5 5 -44 16 -85
22 -193 32 -228 44 -175 57 16 4 40 13 54 21 l26 14 -30 -3 c-17 -1 -35 1 -41
5 -6 3 -36 9 -65 13 -41 4 -58 2 -69 -9z"/>
<path d="M7698 1463 c7 -3 16 -2 19 1 4 3 -2 6 -13 5 -11 0 -14 -3 -6 -6z"/>
<path d="M8023 1463 c9 -2 25 -2 35 0 9 3 1 5 -18 5 -19 0 -27 -2 -17 -5z"/>
<path d="M6855 1433 c-48 -7 -52 -22 -6 -21 28 0 41 5 41 14 0 8 -1 13 -2 13
-2 -1 -16 -4 -33 -6z"/>
<path d="M8805 1410 c-4 -6 -1 -17 5 -25 12 -15 3 -21 -24 -16 -5 1 -13 -4
-17 -11 -5 -7 -9 -8 -9 -3 0 6 -24 9 -55 8 -31 0 -72 3 -91 9 -19 5 -49 8 -67
6 -31 -3 -31 -3 -10 -16 12 -7 48 -14 80 -16 32 -1 68 -8 79 -14 16 -8 24 -8
33 1 8 8 14 9 19 1 12 -18 50 -23 63 -8 6 8 22 14 35 14 13 0 24 4 24 9 0 5
-10 7 -22 4 -13 -3 -20 -3 -16 2 4 4 20 10 36 14 26 5 28 9 21 29 -6 17 -16
22 -43 22 -19 0 -38 -5 -41 -10z"/>
<path d="M2494 1375 c-24 -21 -35 -24 -64 -17 -19 4 -59 6 -88 5 -47 -1 -51 0
-35 13 16 12 11 13 -39 12 -55 -1 -75 -12 -43 -24 29 -12 3 -24 -50 -24 -38 0
-54 -4 -59 -15 -9 -23 28 -33 87 -22 29 5 86 8 127 6 157 -5 227 -2 275 10 91
23 113 24 137 7 12 -9 30 -16 40 -16 25 0 34 21 14 36 -16 12 -16 12 0 16 15
2 13 6 -10 21 -24 16 -33 17 -80 6 -39 -8 -66 -9 -105 0 -71 15 -74 15 -107
-14z"/>
<path d="M8925 1372 c-5 -4 -10 -14 -10 -22 0 -22 15 -30 56 -30 22 0 43 8 57
20 12 12 22 22 22 23 0 2 -15 4 -32 5 -18 1 -44 4 -58 7 -14 3 -29 2 -35 -3z"/>
<path d="M6755 1344 c-5 -1 -27 -5 -48 -9 -38 -6 -43 -25 -6 -25 12 0 17 5 14
11 -4 5 9 3 28 -5 19 -8 66 -17 104 -21 37 -3 79 -8 93 -11 14 -3 22 -2 18 1
-4 4 3 15 14 25 21 17 21 17 2 28 -13 7 -36 7 -69 1 -27 -5 -57 -6 -65 -3 -17
7 -70 13 -85 8z"/>
<path d="M163 1333 c9 -2 23 -2 30 0 6 3 -1 5 -18 5 -16 0 -22 -2 -12 -5z"/>
<path d="M2828 1333 c6 -2 18 -2 25 0 6 3 1 5 -13 5 -14 0 -19 -2 -12 -5z"/>
<path d="M87 1323 c-4 -3 -7 -11 -7 -17 0 -7 3 -7 8 0 4 7 18 14 32 17 l25 4
-26 2 c-14 0 -29 -2 -32 -6z"/>
<path d="M1840 1292 c0 -9 -179 -36 -230 -34 -14 0 -44 4 -66 9 -26 6 -72 6
-120 1 -156 -18 -195 -20 -207 -10 -7 5 -21 6 -31 2 -14 -4 -16 -9 -8 -14 7
-4 10 -11 7 -16 -3 -4 2 -14 11 -21 12 -10 20 -10 34 -2 9 7 33 15 52 18 27 5
38 2 52 -14 24 -27 55 -26 116 0 48 21 48 21 92 1 24 -10 62 -22 83 -26 22 -4
52 -15 67 -24 20 -12 32 -13 50 -5 18 8 31 6 58 -7 51 -26 98 -34 115 -20 10
9 19 9 36 -1 34 -18 141 -6 185 21 26 17 41 21 52 13 11 -6 27 -4 54 9 42 21
49 37 17 45 -12 3 -16 9 -10 12 6 4 -5 7 -23 8 -25 1 -33 -3 -30 -12 8 -21
-14 -28 -64 -20 -39 6 -43 9 -26 15 34 13 37 27 8 34 -28 7 -39 2 -39 -17 0
-7 -15 -13 -34 -15 -30 -3 -33 -2 -22 12 11 13 7 16 -26 21 -21 4 -49 11 -63
16 -14 5 -34 10 -45 12 -11 1 -26 6 -32 10 -7 5 -13 4 -13 -1z m35 -53 c-8
-12 -35 -12 -35 0 0 11 22 20 33 14 4 -2 5 -9 2 -14z m-111 5 c25 -10 19 -21
-16 -33 -21 -7 -44 -7 -63 -2 -25 8 -26 9 -7 10 12 1 25 8 28 16 6 16 31 19
58 9z"/>
<path d="M6513 1290 c-35 -14 -19 -42 21 -35 18 4 46 0 67 -9 22 -9 40 -11 50
-5 11 7 9 9 -8 9 -13 0 -23 5 -23 10 0 6 -6 10 -14 10 -8 0 -16 4 -18 9 -5 15
-51 21 -75 11z m24 -16 c-3 -3 -12 -4 -19 -1 -8 3 -5 6 6 6 11 1 17 -2 13 -5z"/>
<path d="M6970 1290 c0 -5 12 -10 26 -10 14 0 23 4 19 10 -3 6 -15 10 -26 10
-10 0 -19 -4 -19 -10z"/>
<path d="M7365 1285 c17 -8 38 -14 48 -15 10 0 15 -4 12 -10 -3 -5 -41 -10
-83 -11 l-77 -1 95 -13 c59 -8 104 -9 118 -4 13 5 34 6 46 3 17 -4 32 3 57 25
33 31 33 31 9 31 -14 1 -77 3 -140 5 -104 3 -112 2 -85 -10z"/>
<path d="M7635 1290 c-3 -5 11 -12 32 -16 21 -4 44 -13 51 -21 16 -15 34 -13
40 5 2 6 -13 14 -35 17 -21 3 -48 10 -60 15 -13 6 -25 6 -28 0z"/>
<path d="M1350 1279 c0 -5 5 -7 10 -4 6 3 10 8 10 11 0 2 -4 4 -10 4 -5 0 -10
-5 -10 -11z"/>
<path d="M7188 1283 c7 -3 16 -2 19 1 4 3 -2 6 -13 5 -11 0 -14 -3 -6 -6z"/>
<path d="M7040 1276 c0 -2 14 -6 30 -8 17 -3 30 -1 30 4 0 4 -13 8 -30 8 -16
0 -30 -2 -30 -4z"/>
<path d="M7910 1260 c-25 -4 -51 -5 -59 -2 -29 11 -3 -24 30 -40 46 -23 85
-22 110 3 16 16 18 23 8 35 -12 15 -20 15 -89 4z"/>
<path d="M3605 1250 c28 -12 55 -12 55 0 0 6 -17 10 -37 9 -31 0 -34 -2 -18
-9z"/>
<path d="M3738 1253 c23 -2 59 -2 80 0 20 2 1 4 -43 4 -44 0 -61 -2 -37 -4z"/>
<path d="M6843 1254 c28 -9 19 -24 -15 -24 -51 0 -26 -10 28 -11 27 0 63 -5
80 -10 31 -10 158 -25 304 -38 47 -4 94 -12 105 -18 11 -6 47 -14 80 -17 33
-4 83 -11 110 -16 28 -6 114 -19 191 -30 112 -15 148 -17 172 -8 27 10 33 9
62 -16 18 -15 39 -25 47 -22 8 3 33 1 57 -6 30 -8 55 -8 82 -1 29 7 54 6 90
-3 52 -13 64 -11 64 11 0 7 8 16 18 21 12 5 -1 10 -43 15 -33 4 -94 14 -135
23 -116 26 -196 35 -306 35 -86 1 -105 4 -127 21 -18 14 -51 23 -119 30 -51 5
-137 16 -192 24 -54 9 -133 18 -175 22 -42 3 -87 8 -101 10 -39 7 -297 14
-277 8z"/>
<path d="M8151 1221 c-10 -17 -21 -21 -66 -21 -29 0 -56 -4 -59 -9 -8 -12 61
-44 76 -35 6 4 8 3 5 -2 -6 -10 259 -11 269 -1 3 3 -23 8 -59 12 -54 6 -64 10
-60 24 6 23 -13 38 -59 46 -31 6 -38 4 -47 -14z"/>
<path d="M2580 1215 c0 -16 12 -18 59 -9 46 10 38 24 -14 24 -33 0 -45 -4 -45
-15z"/>
<path d="M3772 1218 c2 -6 23 -17 47 -24 48 -14 91 -4 91 21 0 12 -14 15 -71
15 -49 0 -69 -4 -67 -12z"/>
<path d="M195 1184 c-26 -23 -27 -25 -8 -21 12 3 27 -1 33 -8 6 -7 24 -15 41
-19 28 -5 29 -7 15 -22 -16 -15 -164 -45 -216 -43 l-25 1 27 8 c14 4 58 11 97
15 79 8 91 20 32 30 -22 3 -47 13 -58 20 -10 8 -27 14 -38 14 -17 -1 -17 -2
-2 -6 39 -10 9 -36 -56 -48 l-37 -7 0 -54 c0 -50 2 -54 23 -54 50 0 143 24
154 40 7 10 33 23 58 29 25 6 45 15 45 19 0 4 9 13 20 20 18 11 28 9 68 -9 39
-18 64 -22 149 -21 104 1 158 13 120 28 -16 6 -17 8 -2 24 13 15 14 20 3 29
-57 49 -64 52 -93 47 -16 -3 -60 -8 -97 -11 -56 -4 -68 -2 -68 10 0 19 -34 19
-50 0 -7 -8 -23 -15 -35 -15 -13 0 -25 7 -29 15 -8 22 -37 18 -71 -11z m371
-51 c26 -34 17 -43 -41 -43 -42 0 -55 3 -55 15 0 8 6 15 14 15 7 0 19 7 26 15
17 20 40 19 56 -2z m-176 -2 c0 -17 -19 -22 -57 -15 -36 7 -36 8 -13 15 37 10
70 10 70 0z m-263 -107 c-3 -3 -12 -4 -19 -1 -8 3 -5 6 6 6 11 1 17 -2 13 -5z"/>
<path d="M6830 1176 c0 -2 7 -6 15 -10 8 -3 15 -1 15 4 0 6 -7 10 -15 10 -8 0
-15 -2 -15 -4z"/>
<path d="M3550 1162 c0 -5 -8 -19 -19 -30 -14 -17 -30 -22 -67 -23 -61 -1
-126 -20 -132 -38 -4 -11 4 -13 37 -8 22 3 44 1 47 -4 3 -5 0 -9 -5 -9 -22 0
-10 -15 25 -32 19 -10 57 -18 86 -18 84 0 42 -21 -53 -27 -46 -3 -92 -9 -102
-15 -10 -5 -58 -11 -106 -12 -80 -2 -89 0 -97 19 -7 16 -18 20 -64 20 -62 1
-80 -3 -80 -16 0 -5 13 -8 29 -7 16 1 37 -4 46 -12 16 -13 16 -15 -1 -27 -35
-25 -94 -13 -94 19 0 18 -4 19 -37 12 -21 -4 -81 -8 -133 -9 -104 -2 -348 -42
-780 -130 -435 -88 -415 -83 -434 -122 -9 -18 -16 -38 -16 -44 0 -15 38 -1 88
32 48 32 67 35 132 16 56 -17 133 -15 154 2 10 9 26 11 43 6 16 -4 45 -8 65
-9 32 -1 78 -25 53 -27 -6 0 -54 -2 -108 -3 -54 -2 -100 -6 -104 -9 -3 -3 -3
-13 0 -22 8 -20 85 -20 111 0 22 16 76 20 76 6 0 -5 13 -14 30 -20 17 -5 30
-14 30 -18 0 -11 -58 -37 -90 -40 -113 -13 -113 -13 -93 -35 15 -17 26 -19 74
-14 37 3 60 1 68 -7 9 -9 16 -9 31 1 26 16 57 15 63 -1 7 -18 94 -20 120 -2
20 14 19 15 -21 15 -32 0 -47 6 -64 25 -12 14 -28 25 -35 25 -7 0 -13 7 -13
15 0 8 6 15 14 15 8 0 16 5 18 11 2 6 22 14 44 18 45 8 114 -14 114 -36 0 -23
22 -25 50 -5 33 25 47 28 82 18 16 -5 35 -5 44 -2 26 10 -3 36 -40 36 -26 1
-28 2 -13 11 10 6 37 12 60 14 101 10 140 18 181 40 40 21 46 22 65 9 12 -9
21 -23 21 -33 0 -10 9 -21 20 -24 11 -3 20 -10 20 -16 0 -10 -105 -8 -181 4
-20 3 -26 0 -25 -12 0 -10 -9 -19 -24 -23 -14 -3 -26 -14 -28 -24 -3 -16 1
-18 32 -14 20 2 36 1 36 -3 0 -4 13 -12 29 -19 29 -12 71 -1 71 19 0 4 11 13
25 19 21 10 30 9 50 -4 14 -9 25 -19 25 -23 0 -11 57 -41 79 -41 12 0 21 -5
21 -11 0 -7 -10 -9 -25 -7 -13 3 -22 1 -19 -3 2 -4 -4 -13 -15 -18 -27 -15
-73 2 -65 24 5 12 -2 15 -30 15 -41 0 -44 -7 -16 -43 11 -14 20 -27 20 -30 0
-5 -52 -15 -122 -23 -53 -7 -69 -33 -20 -35 15 0 21 -3 14 -6 -15 -6 -6 -23
14 -23 8 0 14 6 14 14 0 32 62 25 102 -11 17 -15 58 -10 58 8 0 17 45 9 105
-21 33 -16 53 -29 44 -30 -9 0 -22 -7 -29 -15 -7 -9 -19 -14 -27 -11 -24 10
-80 -21 -95 -50 -8 -18 -24 -31 -43 -36 -17 -4 16 -4 72 -1 93 5 102 3 112
-14 14 -28 -40 -76 -72 -64 -15 6 -25 4 -32 -6 -10 -13 -16 -13 -49 1 -30 12
-41 13 -57 3 -26 -16 -20 -28 21 -42 18 -6 37 -21 41 -33 5 -14 14 -20 24 -16
11 5 14 2 9 -9 -3 -9 -13 -18 -22 -20 -10 -3 40 -5 111 -6 105 -1 127 1 127
14 0 8 9 19 21 25 17 10 25 7 46 -14 15 -15 37 -26 52 -26 20 0 23 2 11 10 -9
6 -10 10 -3 10 6 0 15 -4 18 -10 4 -6 55 -10 120 -10 l114 0 -9 28 c-20 64
-32 91 -46 96 -8 3 -57 9 -110 12 -52 4 -97 11 -100 15 -7 12 67 44 93 41 13
-2 23 1 23 6 0 17 -42 21 -64 7 -20 -13 -24 -12 -55 17 -19 18 -30 33 -25 34
5 1 21 5 37 8 40 9 34 33 -10 40 -52 7 -86 3 -101 -11 -17 -16 -24 -16 -47 1
-16 12 -17 16 -6 30 7 9 18 16 23 16 5 0 22 10 38 22 26 19 32 20 57 8 16 -7
53 -14 84 -16 44 -2 57 1 67 16 9 15 7 19 -11 24 -19 6 -17 8 18 21 22 8 41
15 43 15 1 0 2 7 2 15 0 8 9 15 20 15 15 0 46 41 120 154 56 85 132 201 171
258 l69 103 -35 9 c-19 4 -43 5 -52 2 -14 -6 -14 -8 3 -21 27 -20 6 -39 -35
-30 -35 8 -40 21 -11 30 32 10 23 25 -14 25 -63 0 -69 10 -20 36 l45 24 39
-20 c27 -14 41 -16 46 -9 3 6 18 9 33 6 23 -5 31 2 68 53 39 55 41 60 26 76
-14 13 -29 15 -86 9 -38 -3 -80 -11 -93 -15 -26 -10 -81 -3 -90 11 -7 12 -84
12 -84 1z m109 -31 c35 -22 -26 -41 -74 -22 -18 7 -17 9 10 19 38 13 47 14 64
3z m-99 -51 c0 -5 -19 -9 -42 -9 l-43 2 40 7 c22 4 41 8 43 9 1 0 2 -3 2 -9z
m-110 -20 c0 -5 -2 -10 -4 -10 -3 0 -8 5 -11 10 -3 6 -1 10 4 10 6 0 11 -4 11
-10z m-487 -187 c20 -16 36 -31 37 -35 0 -5 -40 -8 -90 -8 -73 0 -90 -3 -90
-15 0 -8 11 -22 25 -31 14 -9 25 -20 25 -24 0 -14 -80 -16 -112 -3 -17 7 -50
13 -73 13 -24 0 -45 3 -47 8 -4 10 -101 42 -127 42 -28 0 -27 14 2 27 16 7 28
6 42 -3 31 -19 86 -19 124 0 23 12 44 16 68 11 34 -6 91 8 128 32 29 19 48 16
88 -14z m207 -52 c0 -5 -7 -11 -15 -15 -9 -3 -15 0 -15 9 0 8 7 15 15 15 8 0
15 -4 15 -9z m287 -25 c-4 -12 -57 -22 -57 -10 0 4 8 12 17 19 19 14 46 8 40
-9z m-1417 -6 c12 -8 13 -11 1 -19 -14 -9 -51 -3 -51 8 0 21 26 27 50 11z
m978 1 c9 -5 25 -12 35 -15 41 -13 8 -28 -67 -32 -68 -3 -77 -2 -72 12 3 9 6
19 6 24 0 8 25 16 63 19 9 0 25 -3 35 -8z m-759 -45 c17 -20 81 -27 119 -14
27 10 35 10 48 -4 15 -15 15 -17 -6 -28 -23 -12 -100 -5 -100 11 0 4 -7 6 -15
3 -8 -4 -21 -1 -29 5 -7 6 -27 8 -43 5 -38 -7 -54 12 -21 25 31 13 34 13 47
-3z m375 -2 c19 -19 20 -28 3 -42 -10 -9 -17 -6 -30 8 -9 11 -24 20 -32 20
-16 0 -20 12 -8 23 12 13 51 7 67 -9z m535 -19 c10 -10 11 -15 3 -15 -7 0 -12
-7 -12 -15 0 -28 -38 -16 -54 17 -9 17 -16 32 -16 34 0 9 67 -8 79 -21z m-108
-66 c15 -15 17 -21 6 -25 -11 -4 -97 -1 -162 6 -5 0 15 12 45 24 59 26 81 25
111 -5z m294 -19 c10 -11 24 -20 30 -20 17 0 37 -25 27 -34 -4 -4 -7 -13 -7
-19 0 -16 -125 -11 -141 5 -3 4 -15 3 -25 -2 -12 -7 -20 -6 -24 1 -4 6 2 13
14 16 11 3 23 15 27 27 3 11 11 27 16 34 16 19 63 14 83 -8z m-430 -191 c10
-15 -1 -22 -24 -14 -12 3 -19 11 -16 16 8 12 32 11 40 -2z m275 -199 c20 -6
22 -9 9 -14 -8 -4 -29 0 -45 9 -22 11 -24 15 -9 14 11 -1 31 -4 45 -9z m-78
-122 c-7 -7 -18 -5 -33 6 l-23 15 25 9 c27 11 50 -11 31 -30z m-60 -69 c28
-15 8 -27 -34 -21 -29 4 -30 6 -13 18 23 17 21 17 47 3z"/>
<path d="M1155 1150 c-7 -12 15 -12 70 -1 l40 9 -52 1 c-28 0 -55 -3 -58 -9z"/>
<path d="M1385 1150 c3 -5 13 -10 21 -10 8 0 12 5 9 10 -3 6 -13 10 -21 10 -8
0 -12 -4 -9 -10z"/>
<path d="M4156 1145 c4 -8 11 -15 16 -15 6 0 5 6 -2 15 -7 8 -14 15 -16 15 -2
0 -1 -7 2 -15z"/>
<path d="M6870 1149 c0 -7 61 -19 93 -19 10 0 16 4 12 10 -3 5 -12 7 -20 3 -8
-3 -15 0 -15 5 0 6 -16 10 -35 9 -19 -1 -35 -5 -35 -8z"/>
<path d="M1065 1140 c-17 -7 -14 -9 13 -9 20 -1 31 3 27 9 -7 12 -13 12 -40 0z"/>
<path d="M1290 1130 c0 -5 5 -10 10 -10 6 0 10 5 10 10 0 6 -4 10 -10 10 -5 0
-10 -4 -10 -10z"/>
<path d="M2229 1131 c-14 -5 -65 -12 -113 -16 -69 -5 -91 -11 -106 -27 -17
-19 -32 -21 -139 -22 -66 -1 -123 -4 -127 -9 -4 -4 3 -18 15 -31 l23 -25 -33
-9 c-21 -5 -44 -4 -62 2 l-27 11 22 17 c13 9 20 20 16 23 -4 4 -64 -2 -135
-14 -127 -21 -170 -25 -124 -12 25 7 25 7 -10 28 -18 12 -49 34 -67 49 -27 22
-35 25 -42 14 -7 -12 -12 -11 -29 4 -18 16 -31 17 -98 11 -100 -9 -159 -22
-205 -46 -20 -10 -74 -24 -120 -30 -45 -6 -85 -13 -87 -15 -3 -2 6 -15 18 -28
l22 -23 -32 -13 c-30 -13 -93 -20 -184 -21 -24 -1 -45 -7 -55 -18 -18 -21 -81
-35 -120 -26 -26 6 -29 9 -23 37 5 25 3 29 -8 22 -8 -5 -45 -9 -84 -10 -38 0
-125 -11 -193 -24 l-122 -24 0 -76 0 -77 327 67 c203 41 328 70 328 77 0 7 6
18 13 25 11 11 15 10 23 -4 14 -25 29 -23 260 22 141 28 206 45 212 56 7 12
12 13 23 3 12 -9 33 -9 99 0 l84 13 47 -34 c25 -18 55 -39 65 -47 17 -12 35
-11 132 8 61 12 220 39 351 61 132 22 242 43 245 45 2 3 -20 5 -50 5 l-53 0
22 22 c19 19 33 23 91 23 62 0 68 2 67 20 -1 22 -19 27 -57 16z m-134 -61 c3
-5 -1 -10 -10 -10 -9 0 -13 5 -10 10 3 6 8 10 10 10 2 0 7 -4 10 -10z m-1060
-30 c10 -11 24 -20 32 -20 7 0 13 -5 13 -11 0 -12 -126 -6 -139 7 -9 8 38 44
59 44 9 0 25 -9 35 -20z m355 10 c8 -5 11 -10 5 -10 -5 0 -17 5 -25 10 -8 5
-10 10 -5 10 6 0 17 -5 25 -10z m-252 -27 c2 -8 -5 -13 -17 -13 -12 0 -21 6
-21 16 0 18 31 15 38 -3z m-735 -133 c15 0 18 -3 10 -11 -13 -13 -131 -21
-138 -9 -8 13 46 30 79 25 16 -3 38 -5 49 -5z"/>
<path d="M1437 1114 c3 -8 11 -14 19 -14 21 0 17 17 -5 23 -14 3 -18 1 -14 -9z"/>
<path d="M7107 1119 c7 -7 15 -10 18 -7 3 3 -2 9 -12 12 -14 6 -15 5 -6 -5z"/>
<path d="M7268 1113 c-10 -2 -18 -9 -18 -14 0 -9 19 -14 85 -23 82 -11 120
-17 138 -20 9 -2 17 0 17 5 0 5 7 9 15 9 8 0 14 -5 13 -12 -2 -7 43 -20 127
-35 201 -36 242 -40 261 -30 31 17 -44 45 -105 39 -34 -3 -51 -1 -51 7 0 6 5
11 12 11 6 0 8 3 5 6 -18 19 -425 66 -449 53 -12 -6 -18 -6 -18 1 0 10 -3 11
-32 3z"/>
<path d="M1545 1091 c5 -18 2 -21 -19 -21 -26 0 -35 -13 -16 -25 8 -5 125 11
223 31 45 9 21 19 -51 20 -37 1 -84 5 -106 9 -36 7 -38 6 -31 -14z"/>
<path d="M2428 1105 c-3 -3 -25 -9 -49 -14 l-44 -9 60 -1 c64 -1 100 11 70 23
-20 7 -30 8 -37 1z"/>
<path d="M2685 1091 c-3 -5 7 -11 22 -13 28 -4 24 -8 -23 -23 -8 -3 -13 -9
-10 -13 3 -5 32 -4 65 2 55 9 75 26 30 26 -24 0 -25 17 -1 23 9 3 -4 5 -30 6
-26 0 -49 -3 -53 -8z"/>
<path d="M8355 1070 c3 -5 25 -15 48 -21 23 -7 53 -22 65 -33 l24 -21 19 24
c11 13 17 26 15 28 -5 6 -143 33 -164 33 -7 0 -10 -4 -7 -10z"/>
<path d="M9776 1071 c-6 -9 26 -21 58 -21 20 0 20 0 0 15 -22 16 -50 19 -58 6z"/>
<path d="M2290 1059 c0 -5 5 -7 10 -4 6 3 10 8 10 11 0 2 -4 4 -10 4 -5 0 -10
-5 -10 -11z"/>
<path d="M7080 1055 l-45 -12 70 -11 c39 -7 129 -21 200 -32 72 -11 157 -25
190 -31 33 -6 81 -11 107 -11 26 1 50 -3 53 -9 8 -12 52 -12 60 1 3 6 23 10
43 10 23 0 33 3 26 10 -10 10 -50 13 -129 8 -27 -2 -66 -1 -85 3 l-35 6 33 2
c79 3 16 20 -185 49 -237 35 -237 35 -303 17z"/>
<path d="M9895 1049 c-16 -6 -14 -8 13 -8 33 -1 41 4 20 12 -7 2 -22 1 -33 -4z"/>
<path d="M2175 1020 c-93 -16 -295 -51 -449 -79 l-278 -52 -61 51 c-58 47 -97
63 -97 40 0 -5 -6 -7 -13 -4 -22 8 -776 -130 -1154 -212 -62 -13 -115 -24
-118 -24 -3 0 -5 -31 -5 -70 0 -75 2 -78 56 -61 16 5 54 14 84 21 30 7 68 23
83 36 31 26 57 30 87 14 14 -8 39 -5 92 9 46 12 67 15 56 7 -16 -12 -16 -14 7
-35 19 -16 41 -22 85 -24 64 -2 75 9 33 33 -15 8 -34 23 -44 32 -17 16 -15 17
37 24 56 7 80 -2 124 -46 11 -11 32 -18 53 -18 44 0 57 -8 57 -32 0 -22 -22
-39 -28 -22 -6 19 -22 14 -22 -8 0 -19 -7 -20 -97 -20 -123 0 -139 -8 -98 -50
l30 -30 150 39 c171 45 201 55 222 76 11 12 18 13 29 4 16 -13 74 -2 71 14 -1
7 13 10 40 8 42 -2 82 7 155 36 20 9 41 12 46 9 6 -3 23 -1 39 5 15 7 36 11
45 10 12 -1 30 18 55 57 30 47 44 61 68 64 38 6 479 90 650 124 113 23 134 30
159 55 24 25 34 29 60 23 17 -3 36 -10 42 -15 12 -10 136 4 174 19 24 10 24
11 -10 13 -34 2 -110 -1 -157 -6 -13 -1 -23 2 -23 6 0 14 -52 9 -235 -21z
m-844 -77 c13 -16 12 -17 -3 -4 -17 13 -22 21 -14 21 2 0 10 -8 17 -17z m-327
-129 c11 -29 6 -42 -19 -48 -26 -7 -31 -21 -16 -45 6 -10 20 -12 47 -8 44 7
27 -7 -21 -17 -26 -5 -32 -2 -42 21 -18 39 -16 51 10 55 14 2 22 10 22 23 0
17 -6 20 -35 18 -28 -2 -31 0 -15 7 32 14 62 11 69 -6z m266 -9 c13 -14 21
-28 18 -31 -4 -3 -15 7 -24 22 l-18 27 -7 -24 c-7 -24 -7 -23 -8 4 -1 34 9 34
39 2z m-78 -47 c-7 -7 -16 1 -27 23 l-16 34 20 -25 21 -25 1 30 2 30 4 -29 c3
-16 0 -33 -5 -38z m-79 45 c-15 -6 -17 -33 -3 -33 5 0 7 -7 4 -15 -4 -10 0
-15 12 -15 16 0 16 -2 4 -9 -19 -13 -27 -6 -35 29 -7 32 0 50 18 49 9 0 9 -2
0 -6z m-214 -59 c24 -63 24 -64 13 -64 -5 0 -14 23 -21 50 -8 30 -17 47 -23
43 -6 -3 -8 -1 -4 5 3 6 -3 12 -16 15 -21 4 -21 4 3 6 23 1 29 -6 48 -55z
m-86 35 c-7 -7 -6 -23 4 -52 8 -23 16 -43 18 -45 2 -2 8 16 14 40 l11 43 -5
-49 c-5 -44 -3 -48 15 -43 11 3 18 1 14 -4 -3 -5 -18 -9 -33 -9 -26 0 -30 5
-44 56 -17 58 -15 74 6 74 8 0 8 -3 0 -11z m617 -3 c0 -2 -8 -10 -17 -17 -16
-13 -17 -12 -4 4 13 16 21 21 21 13z"/>
<path d="M2870 1044 c-14 -3 -137 -23 -275 -45 -441 -72 -1061 -188 -1070
-201 -1 -2 -9 -14 -18 -28 -22 -32 -21 -40 3 -40 11 0 20 -5 20 -12 0 -7 7 -5
18 5 10 9 52 23 93 31 41 8 119 24 173 36 342 73 641 133 701 141 62 8 130 24
205 49 14 5 41 12 60 15 19 3 59 13 87 22 43 13 58 13 83 3 33 -13 109 -5 94
10 -11 11 -137 21 -174 14z"/>
<path d="M6830 1030 c0 -5 8 -10 18 -10 9 0 25 -7 35 -14 15 -12 13 -14 -25
-24 -24 -7 -50 -12 -58 -14 -29 -4 -140 14 -146 23 -7 13 -75 0 -95 -17 -9 -8
-19 -11 -24 -7 -4 5 -5 3 -1 -4 3 -6 -1 -13 -10 -15 -13 -2 10 -43 96 -173
215 -324 260 -404 260 -469 0 -21 3 -27 9 -18 7 12 14 11 38 -2 34 -17 48 -59
27 -77 -23 -19 -5 -30 21 -13 36 23 68 14 85 -24 13 -30 18 -33 48 -28 18 3
30 1 27 -4 -3 -4 1 -11 7 -13 7 -3 3 -6 -9 -6 -23 -1 -29 -16 -15 -38 6 -9 30
-12 73 -10 35 1 74 -2 85 -6 15 -5 27 -3 37 8 25 25 57 18 93 -21 19 -19 34
-40 34 -45 0 -12 47 -12 55 1 3 6 -1 7 -9 4 -12 -5 -16 0 -16 18 0 18 10 30
34 43 l34 19 -25 13 c-18 9 -35 11 -59 4 -45 -13 -119 6 -103 25 6 8 20 14 30
14 11 0 19 4 19 9 0 9 106 -23 125 -39 7 -6 24 -5 49 2 28 9 58 9 126 -1 75
-10 93 -10 116 2 l27 14 -33 6 c-17 4 -43 4 -56 1 -27 -7 -32 7 -9 26 22 18
18 30 -10 30 -14 0 -24 4 -22 9 1 5 -7 16 -18 25 -18 14 -19 16 -4 31 15 15
18 15 44 -9 15 -14 32 -26 37 -26 19 0 48 21 43 31 -4 5 4 9 16 9 12 0 31 7
40 16 10 9 29 18 43 19 13 2 33 8 44 14 11 6 32 11 46 11 14 0 26 5 26 11 0 7
-9 9 -27 3 -39 -10 -100 -6 -151 11 -23 8 -49 15 -57 15 -8 0 -15 4 -15 10 0
15 35 30 72 31 18 0 42 4 53 8 13 6 32 2 55 -9 55 -27 98 -32 125 -14 21 14
27 14 60 0 40 -17 80 -13 89 10 7 20 43 17 80 -5 33 -20 121 -26 146 -11 13 8
13 10 -1 10 -9 0 -22 7 -30 16 -7 9 -21 13 -34 10 -12 -3 -40 3 -61 13 -21 10
-65 25 -97 32 -66 14 -60 23 23 34 111 13 118 26 25 44 -36 7 -65 16 -65 20 0
17 50 33 82 27 87 -18 102 -17 133 9 l30 26 -50 -1 c-81 -3 -81 -3 -55 25 13
14 32 25 42 25 26 0 76 -27 102 -55 19 -21 27 -22 80 -16 34 3 61 11 64 19 2
6 -4 12 -14 12 -14 0 -15 3 -6 12 19 19 14 28 -17 28 -17 0 -32 4 -35 9 -3 5
-34 12 -68 16 -35 4 -72 11 -83 15 -18 6 -16 9 13 24 17 9 32 19 32 22 0 3 -4
3 -8 0 -4 -3 -59 6 -122 20 -148 32 -244 39 -236 18 3 -9 6 -18 6 -20 0 -2 10
-4 22 -4 28 0 16 -11 -19 -18 -44 -8 -146 -3 -157 8 -7 7 -6 10 2 10 18 0 15
37 -4 44 -9 3 -27 6 -40 6 -21 0 -23 -2 -12 -20 7 -10 9 -22 6 -26 -12 -11
-76 -8 -92 5 -24 20 -19 31 13 31 17 0 32 4 36 9 9 16 -65 31 -152 31 -49 0
-83 4 -83 10 0 6 -21 10 -47 10 l-48 -1 33 -17 c34 -19 33 -32 -2 -33 -13 0
-5 -7 24 -19 38 -16 41 -19 19 -19 -14 -1 -40 6 -58 15 -21 11 -44 14 -67 10
-18 -4 -34 -3 -34 1 0 4 -21 9 -47 11 -26 1 -51 6 -56 11 -15 15 42 49 93 56
28 4 52 11 56 16 3 5 15 9 28 9 12 0 26 3 30 7 9 9 -456 87 -589 98 -38 3 -85
8 -102 11 -20 3 -33 1 -33 -6z m120 -40 c-20 -13 -40 -13 -40 0 0 6 12 10 28
10 21 0 24 -2 12 -10z m334 -136 c28 -11 17 -24 -18 -24 -38 0 -57 16 -29 23
28 7 30 7 47 1z m501 -54 c-3 -5 -15 -10 -25 -10 -10 0 -22 5 -25 10 -4 6 7
10 25 10 18 0 29 -4 25 -10z m505 -24 c0 -9 -30 -14 -35 -6 -4 6 3 10 14 10
12 0 21 -2 21 -4z m63 -51 c1 -5 -6 -11 -15 -13 -11 -2 -18 3 -18 13 0 17 30
18 33 0z m-1039 -42 c22 -22 30 -24 50 -15 19 8 28 7 43 -4 17 -13 17 -15 -6
-34 -13 -11 -31 -18 -40 -16 -9 3 -41 8 -71 12 -53 6 -90 21 -90 36 0 5 8 8
18 8 9 0 23 9 30 20 16 27 34 25 66 -7z m206 -38 c0 -8 -9 -15 -20 -15 -20 0
-26 11 -13 23 12 13 33 7 33 -8z m1055 5 c-3 -5 -13 -10 -21 -10 -8 0 -12 5
-9 10 3 6 13 10 21 10 8 0 12 -4 9 -10z m-270 -10 c4 -6 -7 -10 -24 -10 -17 0
-31 5 -31 10 0 6 11 10 24 10 14 0 28 -4 31 -10z m-511 -62 c20 -28 15 -34
-32 -33 -77 2 -103 55 -28 55 35 0 48 -5 60 -22z m-725 -7 c10 -10 41 -21 70
-25 44 -6 56 -4 78 14 31 24 71 26 80 4 9 -23 -13 -38 -52 -36 -41 3 -75 -12
-75 -33 0 -15 -26 -21 -32 -7 -9 20 -82 60 -97 53 -9 -4 -52 -6 -95 -3 -79 4
-79 4 -43 17 20 7 48 13 63 13 14 0 31 5 37 11 16 16 45 13 66 -8z m379 -8 c2
-9 -8 -13 -33 -13 -33 0 -36 2 -25 15 15 18 51 16 58 -2z m759 1 c-3 -3 -12
-4 -19 -1 -8 3 -5 6 6 6 11 1 17 -2 13 -5z m-122 -54 c4 -6 -9 -10 -32 -10
-28 0 -34 3 -23 10 20 13 47 13 55 0z m75 -10 c12 -8 9 -10 -13 -10 -16 0 -26
4 -22 10 8 12 16 12 35 0z m-962 -232 c23 -23 13 -34 -30 -30 l-42 4 23 19
c27 22 33 23 49 7z m447 -10 c14 -6 25 -15 25 -19 0 -18 -150 -22 -167 -5 -3
3 9 6 28 6 19 0 43 7 53 15 24 18 28 18 61 3z"/>
<path d="M7970 1020 c0 -5 5 -10 10 -10 6 0 10 5 10 10 0 6 -4 10 -10 10 -5 0
-10 -4 -10 -10z"/>
<path d="M9700 971 c0 -9 9 -11 30 -6 22 5 42 1 71 -14 47 -25 139 -29 139 -7
0 15 -37 23 -157 32 -63 5 -83 4 -83 -5z"/>
<path d="M8421 905 l-23 -13 22 -7 c14 -4 28 -1 38 9 12 10 22 12 32 6 19 -12
80 -13 80 -1 0 22 -111 27 -149 6z"/>
<path d="M9083 903 c9 -2 17 -9 17 -14 0 -6 -4 -8 -9 -5 -8 6 -38 -51 -30 -58
2 -2 27 -6 56 -10 46 -6 53 -4 63 14 9 17 7 22 -12 30 -23 10 -23 10 2 5 14
-2 28 -5 32 -5 4 0 3 -11 -2 -24 -13 -36 -1 -39 48 -10 42 25 48 26 97 15 51
-11 85 -7 85 10 0 5 -15 9 -34 9 -19 0 -36 4 -38 9 -4 11 -98 22 -98 12 0 -4
-9 -7 -20 -8 -11 -1 -20 2 -20 8 0 5 -9 9 -19 9 -11 0 -23 5 -26 10 -3 6 -30
9 -58 9 -29 -1 -44 -3 -34 -6z"/>
<path d="M9355 890 c3 -5 15 -10 25 -10 10 0 22 5 25 10 4 6 -7 10 -25 10 -18
0 -29 -4 -25 -10z"/>
<path d="M8849 886 c-2 -2 -38 -6 -79 -9 -41 -4 -76 -7 -78 -7 -2 0 -1 -3 2
-8 2 -4 -30 -6 -72 -5 -93 3 -87 0 45 -22 104 -19 109 -21 126 -76 3 -9 15
-19 26 -22 24 -6 20 4 -12 40 -11 13 -18 25 -15 28 3 3 22 -17 41 -44 40 -55
87 -74 133 -52 37 17 79 13 98 -8 13 -14 26 -17 61 -13 25 2 50 0 57 -5 19
-15 78 -24 78 -13 0 6 -14 10 -31 10 -27 0 -30 3 -27 27 2 14 10 28 18 30 13
4 13 3 0 -6 -8 -5 -12 -13 -8 -16 7 -7 49 14 60 30 5 6 8 5 8 -2 0 -7 7 -13
16 -13 8 0 13 -4 9 -9 -11 -19 17 -23 31 -5 15 18 15 18 9 -1 -3 -11 -3 -16 1
-12 7 7 64 -23 64 -33 0 -16 -50 -32 -79 -25 -25 5 -31 3 -31 -10 0 -8 8 -18
18 -21 9 -3 26 -10 37 -15 37 -16 45 -14 58 11 8 17 24 27 47 30 19 4 64 27
100 53 35 26 72 47 82 47 10 0 18 5 18 10 0 6 8 10 17 10 9 0 13 3 10 7 -14
14 -171 19 -234 8 -28 -5 -48 -4 -57 4 -9 8 -21 8 -38 2 -16 -6 -40 -6 -64 0
-31 8 -50 6 -94 -10 -48 -17 -58 -18 -77 -6 -18 12 -23 12 -33 0 -10 -12 -9
-16 6 -21 46 -14 59 -24 24 -18 -45 8 -50 11 -50 35 0 25 -25 25 -42 0 -11
-16 -22 -19 -56 -14 -47 6 -48 9 -27 49 19 37 19 54 -1 54 -9 0 -27 9 -41 20
-24 19 -44 25 -54 16z m398 -132 c-3 -3 -12 -4 -19 -1 -8 3 -5 6 6 6 11 1 17
-2 13 -5z"/>
<path d="M8250 850 l-35 -7 28 -11 c16 -7 36 -12 45 -12 24 -1 400 -89 383
-89 -12 -1 -12 -4 -3 -13 10 -10 15 -10 22 2 7 10 10 11 10 3 0 -8 13 -13 30
-13 17 0 30 3 30 6 0 13 -35 64 -44 64 -5 0 -14 6 -20 14 -6 8 -66 26 -134 40
-121 26 -235 32 -312 16z"/>
<path d="M8994 850 c-19 -8 -40 -38 -31 -47 2 -2 16 8 32 22 40 38 40 25 -1
-18 l-35 -36 26 -7 c14 -3 27 -5 28 -3 1 2 12 25 24 50 l22 47 -22 -1 c-12 0
-31 -3 -43 -7z"/>
<path d="M9788 814 c-4 -4 -5 -17 -2 -30 7 -27 -17 -43 -70 -46 -19 -2 -32 -6
-28 -9 7 -6 228 -59 245 -59 20 0 2 28 -33 50 -35 22 -54 44 -32 38 4 -1 22 1
40 5 39 8 42 33 5 41 -65 13 -119 17 -125 10z"/>
<path d="M1552 718 c-6 -6 -26 -12 -44 -12 -22 -1 -33 -6 -33 -16 0 -19 35
-26 47 -8 8 10 9 9 4 -4 -10 -31 13 -29 29 2 18 35 17 58 -3 38z"/>
<path d="M9646 663 c-63 -50 -63 -52 10 -66 26 -5 39 1 78 34 27 21 52 39 57
39 16 0 9 19 -8 24 -67 18 -77 16 -137 -31z"/>
<path d="M1325 650 c-3 -5 -16 -10 -28 -10 -33 0 -97 -20 -97 -30 0 -4 8 -6
19 -3 10 3 22 0 25 -6 4 -6 31 -11 59 -11 46 1 50 2 34 14 -18 14 -18 15 0 24
11 7 24 7 36 0 13 -6 23 -6 34 4 14 11 13 13 -8 19 -37 11 -67 10 -74 -1z"/>
<path d="M9865 635 c-33 -27 -33 -26 16 -43 54 -18 59 -16 59 28 0 35 -3 40
-22 40 -13 -1 -36 -12 -53 -25z"/>
<path d="M85 603 c-42 -9 -50 -14 -37 -22 10 -6 26 -7 84 -2 11 1 15 6 12 16
-6 15 -20 17 -59 8z"/>
<path d="M9565 600 c3 -5 16 -10 28 -9 21 0 21 1 2 9 -28 12 -37 12 -30 0z"/>
<path d="M1048 583 c6 -2 18 -2 25 0 6 3 1 5 -13 5 -14 0 -19 -2 -12 -5z"/>
<path d="M9635 580 c3 -5 10 -10 16 -10 5 0 9 5 9 10 0 6 -7 10 -16 10 -8 0
-12 -4 -9 -10z"/>
<path d="M8465 570 c-7 -11 18 -24 35 -18 6 2 1 9 -9 15 -13 8 -22 9 -26 3z"/>
<path d="M780 524 c-96 -25 -176 -47 -179 -49 -13 -14 14 -17 61 -7 36 7 57 7
65 0 21 -17 79 0 98 28 14 22 22 25 50 20 23 -5 38 -2 48 9 9 8 22 15 30 15 8
0 20 7 27 15 19 22 -2 19 -200 -31z"/>
<path d="M480 536 c0 -2 7 -6 15 -10 8 -3 15 -1 15 4 0 6 -7 10 -15 10 -8 0
-15 -2 -15 -4z"/>
<path d="M1008 533 c6 -2 18 -2 25 0 6 3 1 5 -13 5 -14 0 -19 -2 -12 -5z"/>
<path d="M8390 517 c0 -16 28 -18 61 -4 l34 14 -47 -1 c-27 -1 -48 -5 -48 -9z"/>
<path d="M2100 463 c8 -3 21 -12 29 -20 17 -18 56 -13 56 7 0 11 -13 16 -50
17 -27 1 -43 -1 -35 -4z"/>
<path d="M1530 386 c0 -8 -7 -16 -15 -20 -23 -8 -18 -26 8 -26 29 0 44 -11 48
-34 2 -11 10 -21 18 -24 8 -3 11 0 7 6 -9 15 27 50 59 58 34 9 31 16 -14 35
-28 12 -42 14 -50 6 -8 -8 -14 -8 -23 1 -16 16 -38 15 -38 -2z"/>
<path d="M9540 290 c0 -5 5 -10 10 -10 6 0 10 5 10 10 0 6 -4 10 -10 10 -5 0
-10 -4 -10 -10z"/>
<path d="M9790 285 c0 -2 5 -16 12 -30 l11 -25 24 22 c17 16 20 24 11 30 -14
8 -58 11 -58 3z"/>
<path d="M2232 260 c-18 -11 -39 -20 -47 -20 -8 0 -15 -4 -15 -8 0 -15 -45
-30 -73 -25 -16 3 -27 1 -27 -6 0 -5 6 -8 14 -5 8 3 23 -4 34 -17 18 -19 25
-20 53 -10 25 9 38 8 61 -4 34 -17 80 -10 103 15 12 14 28 16 83 13 l67 -4
-44 21 c-24 11 -63 20 -87 20 -35 0 -47 5 -60 25 -20 30 -20 30 -62 5z"/>
<path d="M9060 249 c-7 -12 -17 -15 -32 -11 -17 4 -20 2 -15 -12 4 -10 7 -19
7 -22 0 -2 10 1 23 6 12 5 35 11 50 15 15 3 25 10 22 15 -3 6 -1 10 4 10 6 0
11 4 11 9 0 17 -61 9 -70 -10z"/>
<path d="M1096 249 c5 -9 -3 -10 -30 -5 -28 5 -38 3 -42 -9 -5 -13 -17 -15
-63 -10 -130 14 -139 13 -144 -6 -5 -18 -26 -23 -99 -22 -10 0 -18 -6 -18 -12
0 -6 -20 -16 -45 -22 -25 -6 -45 -7 -45 -4 0 4 -14 12 -30 18 -23 9 -42 8 -77
0 -52 -13 -65 -31 -31 -41 22 -7 22 -8 -7 -16 -21 -7 -33 -6 -45 5 -11 10 -31
12 -74 8 -44 -5 -57 -3 -52 5 8 13 -21 17 -80 13 -18 -1 -35 3 -39 9 -6 9 -10
9 -16 -1 -9 -15 -76 -17 -126 -5 l-33 8 0 -81 0 -81 154 0 153 0 -5 25 c-2 15
0 25 7 25 7 0 10 -4 6 -9 -11 -19 27 -41 71 -41 37 0 44 3 44 19 0 27 15 34
65 33 23 -1 50 4 61 13 11 8 14 15 7 15 -23 0 -14 19 18 35 29 16 31 15 36 -4
3 -13 14 -21 27 -21 17 -1 16 -3 -9 -14 -16 -7 -38 -23 -49 -34 -14 -16 -23
-19 -37 -12 -28 15 -46 12 -52 -10 -5 -20 0 -20 434 -20 281 0 439 4 439 10 0
6 0 12 0 15 0 3 -2 5 -5 5 -2 1 -24 9 -47 20 -37 16 -46 17 -75 5 -21 -9 -35
-10 -39 -4 -15 25 86 63 108 41 6 -6 23 -9 38 -6 14 3 42 -1 61 -9 34 -14 35
-14 37 9 1 13 -2 23 -6 22 -4 -1 -21 6 -39 15 -18 9 -36 17 -40 16 -44 -7 -43
18 1 54 41 32 57 34 74 7 14 -23 34 -25 61 -8 18 11 18 13 -7 32 -35 28 -150
30 -190 4 -33 -22 -65 -23 -82 -3 -7 8 -28 15 -46 15 -19 0 -34 5 -34 10 0 6
-12 10 -26 10 -16 0 -23 -4 -18 -11z m44 -59 c0 -5 -7 -10 -16 -10 -8 0 -12 5
-9 10 3 6 10 10 16 10 5 0 9 -4 9 -10z m170 -30 c0 -5 -7 -10 -16 -10 -8 0
-12 5 -9 10 3 6 10 10 16 10 5 0 9 -4 9 -10z m-475 -11 c4 -6 5 -12 3 -14 -7
-7 -48 7 -48 16 0 13 37 11 45 -2z m-25 -94 c7 -9 10 -18 6 -22 -10 -10 -102
-6 -123 5 -15 9 -13 12 17 20 52 15 86 14 100 -3z m277 -2 c3 -7 -3 -9 -17 -6
-29 8 -37 25 -9 21 12 -1 24 -8 26 -15z m-697 -33 c-20 -13 -40 -13 -40 0 0 6
12 10 28 10 21 0 24 -2 12 -10z"/>
<path d="M8110 240 c0 -20 -37 -29 -75 -19 -31 9 -41 8 -53 -5 -23 -23 -8 -30
36 -19 33 8 43 7 65 -9 25 -18 28 -18 43 -4 8 9 27 16 42 16 l26 0 -34 25
c-36 27 -50 31 -50 15z m30 -30 c0 -5 -5 -10 -11 -10 -5 0 -7 5 -4 10 3 6 8
10 11 10 2 0 4 -4 4 -10z"/>
<path d="M9377 237 c7 -12 -16 -16 -102 -20 -68 -3 -80 -6 -83 -21 -3 -15 0
-18 18 -13 17 4 20 3 11 -6 -6 -6 -11 -18 -11 -27 1 -10 8 -6 21 13 11 15 25
25 30 21 5 -3 7 -9 5 -13 -3 -4 8 -8 24 -9 36 -1 78 -36 59 -48 -8 -4 -27 -9
-44 -11 -16 -2 -38 -4 -47 -5 -10 -1 -18 -6 -18 -11 0 -5 -7 -4 -16 4 -13 11
-15 9 -10 -12 4 -13 3 -29 -1 -34 -12 -15 -55 -34 -88 -38 -16 -2 0 -5 38 -6
63 -1 68 1 79 24 6 14 18 25 27 25 28 0 94 27 106 43 13 18 91 41 106 31 6 -3
16 2 24 12 9 13 27 19 55 20 28 0 47 6 55 17 17 23 62 22 77 -3 9 -13 24 -20
45 -20 18 0 33 -5 33 -11 0 -5 -4 -7 -10 -4 -16 10 -12 -11 5 -25 12 -10 15
-9 15 5 0 9 9 19 20 22 34 9 23 19 -42 38 -35 10 -67 22 -73 25 -35 24 -321
59 -308 37z"/>
<path d="M9674 238 c-4 -7 -4 -10 1 -6 4 4 14 3 20 -2 9 -7 16 -6 25 5 11 13
9 15 -13 15 -14 0 -29 -6 -33 -12z"/>
<path d="M7797 224 c-14 -14 -7 -35 11 -32 9 2 17 10 17 17 0 16 -18 25 -28
15z"/>
<path d="M9785 209 l-30 -6 45 -20 c25 -11 62 -25 83 -32 47 -16 48 -25 1 -16
-27 5 -34 3 -29 -6 5 -6 10 -33 12 -58 3 -35 -1 -49 -14 -58 -15 -12 -13 -13
15 -13 53 0 72 31 72 118 0 46 -5 78 -12 85 -14 13 -94 16 -143 6z"/>
<path d="M110 190 c-13 -8 -13 -10 2 -10 9 0 20 5 23 10 8 13 -5 13 -25 0z"/>
<path d="M8946 172 c-3 -6 -1 -14 5 -17 15 -10 25 3 12 16 -7 7 -13 7 -17 1z"/>
<path d="M9055 170 c3 -5 8 -10 11 -10 2 0 4 5 4 10 0 6 -5 10 -11 10 -5 0 -7
-4 -4 -10z"/>
<path d="M268 163 c6 -2 18 -2 25 0 6 3 1 5 -13 5 -14 0 -19 -2 -12 -5z"/>
<path d="M8885 160 c-3 -5 -1 -10 4 -10 6 0 11 5 11 10 0 6 -2 10 -4 10 -3 0
-8 -4 -11 -10z"/>
<path d="M8698 106 c-9 -49 -43 -86 -80 -86 -15 0 -28 -5 -28 -11 0 -16 59 -3
81 17 24 21 41 67 37 96 -3 17 -5 14 -10 -16z"/>
<path d="M7890 122 c0 -14 11 -21 26 -15 21 8 17 23 -6 23 -11 0 -20 -4 -20
-8z"/>
<path d="M7640 100 c0 -13 11 -13 30 0 12 8 11 10 -7 10 -13 0 -23 -4 -23 -10z"/>
<path d="M8488 93 c7 -3 16 -2 19 1 4 3 -2 6 -13 5 -11 0 -14 -3 -6 -6z"/>
<path d="M8418 40 c-9 -22 -12 -40 -7 -40 11 0 31 48 27 66 -2 8 -11 -4 -20
-26z"/>
<path d="M7970 61 c0 -5 8 -11 18 -14 13 -3 10 -7 -12 -16 -16 -6 -43 -9 -59
-5 -57 12 -78 12 -73 -2 3 -7 0 -15 -7 -18 -7 -2 44 -4 113 -4 69 0 117 2 107
5 -14 4 -17 11 -13 28 5 19 1 23 -25 29 -42 8 -49 8 -49 -3z"/>
<path d="M2710 32 c-5 -2 -10 -11 -10 -19 0 -13 7 -14 38 -8 20 4 47 7 59 7
19 0 20 2 9 13 -12 12 -67 16 -96 7z"/>
<path d="M7380 30 c0 -5 5 -10 10 -10 6 0 10 5 10 10 0 6 -4 10 -10 10 -5 0
-10 -4 -10 -10z"/>
<path d="M2445 20 c4 -6 11 -8 16 -5 14 9 11 15 -7 15 -8 0 -12 -5 -9 -10z"/>
<path d="M7630 16 c0 -13 12 -16 70 -16 39 0 70 4 70 10 0 5 -19 8 -42 7 -24
-1 -55 2 -70 7 -23 7 -28 5 -28 -8z"/>
<path d="M2405 10 c-4 -6 3 -10 14 -10 25 0 27 6 6 13 -8 4 -17 2 -20 -3z"/>
<path d="M7330 10 c0 -5 4 -10 9 -10 6 0 13 5 16 10 3 6 -1 10 -9 10 -9 0 -16
-4 -16 -10z"/>
<path d="M8490 10 c-19 -6 -12 -8 30 -9 39 0 51 2 40 9 -17 11 -35 11 -70 0z"/>
<path d="M8238 3 c7 -3 16 -2 19 1 4 3 -2 6 -13 5 -11 0 -14 -3 -6 -6z"/>
</g>
</svg>
